<svg width="109" height="109" viewBox="0 0 109 109" fill="none" xmlns="http://www.w3.org/2000/svg">
<circle cx="54.5" cy="54.5" r="52" stroke="#00EFFE" stroke-width="5"/>
<line x1="55" y1="55" x2="106" y2="55" stroke="#00EFFE" stroke-width="2" stroke-dasharray="4 4"/>
<circle cx="55" cy="55" r="2" fill="#00EFFE"/>
<path d="M77.793 39.0859V49H74.418V36.3203H77.5938L77.793 39.0859ZM81.6133 36.2383L81.5547 39.3672C81.3906 39.3438 81.1914 39.3242 80.957 39.3086C80.7305 39.2852 80.5234 39.2734 80.3359 39.2734C79.8594 39.2734 79.4453 39.3359 79.0938 39.4609C78.75 39.5781 78.4609 39.7539 78.2266 39.9883C78 40.2227 77.8281 40.5078 77.7109 40.8438C77.6016 41.1797 77.5391 41.5625 77.5234 41.9922L76.8438 41.7812C76.8438 40.9609 76.9258 40.207 77.0898 39.5195C77.2539 38.8242 77.4922 38.2188 77.8047 37.7031C78.125 37.1875 78.5156 36.7891 78.9766 36.5078C79.4375 36.2266 79.9648 36.0859 80.5586 36.0859C80.7461 36.0859 80.9375 36.1016 81.1328 36.1328C81.3281 36.1562 81.4883 36.1914 81.6133 36.2383Z" fill="white"/>
</svg>
