<svg width="149" height="28" viewBox="0 0 149 28" fill="none" xmlns="http://www.w3.org/2000/svg">
<path d="M3.04297 9H1.18555L1.19727 7.62891H3.04297C3.50391 7.62891 3.89258 7.52539 4.20898 7.31836C4.52539 7.10742 4.76367 6.80078 4.92383 6.39844C5.08789 5.99609 5.16992 5.50977 5.16992 4.93945V4.52344C5.16992 4.08594 5.12305 3.70117 5.0293 3.36914C4.93945 3.03711 4.80469 2.75781 4.625 2.53125C4.44531 2.30469 4.22461 2.13477 3.96289 2.02148C3.70117 1.9043 3.40039 1.8457 3.06055 1.8457H1.15039V0.46875H3.06055C3.63086 0.46875 4.15234 0.566406 4.625 0.761719C5.10156 0.953125 5.51367 1.22852 5.86133 1.58789C6.20898 1.94727 6.47656 2.37695 6.66406 2.87695C6.85547 3.37305 6.95117 3.92578 6.95117 4.53516V4.93945C6.95117 5.54492 6.85547 6.09766 6.66406 6.59766C6.47656 7.09766 6.20898 7.52734 5.86133 7.88672C5.51758 8.24219 5.10547 8.51758 4.625 8.71289C4.14844 8.9043 3.62109 9 3.04297 9ZM2.18164 0.46875V9H0.423828V0.46875H2.18164ZM11.041 9.11719C10.5488 9.11719 10.1074 9.03906 9.7168 8.88281C9.32617 8.72266 8.99414 8.50195 8.7207 8.2207C8.45117 7.93945 8.24414 7.61328 8.09961 7.24219C7.95508 6.86719 7.88281 6.46875 7.88281 6.04688V5.8125C7.88281 5.33203 7.95117 4.89258 8.08789 4.49414C8.22461 4.0957 8.41992 3.75 8.67383 3.45703C8.93164 3.16406 9.24414 2.93945 9.61133 2.7832C9.97852 2.62305 10.3926 2.54297 10.8535 2.54297C11.3027 2.54297 11.7012 2.61719 12.0488 2.76562C12.3965 2.91406 12.6875 3.125 12.9219 3.39844C13.1602 3.67188 13.3398 4 13.4609 4.38281C13.582 4.76172 13.6426 5.18359 13.6426 5.64844V6.35156H8.60352V5.22656H11.9844V5.09766C11.9844 4.86328 11.9414 4.6543 11.8555 4.4707C11.7734 4.2832 11.6484 4.13477 11.4805 4.02539C11.3125 3.91602 11.0977 3.86133 10.8359 3.86133C10.6133 3.86133 10.4219 3.91016 10.2617 4.00781C10.1016 4.10547 9.9707 4.24219 9.86914 4.41797C9.77148 4.59375 9.69727 4.80078 9.64648 5.03906C9.59961 5.27344 9.57617 5.53125 9.57617 5.8125V6.04688C9.57617 6.30078 9.61133 6.53516 9.68164 6.75C9.75586 6.96484 9.85938 7.15039 9.99219 7.30664C10.1289 7.46289 10.293 7.58398 10.4844 7.66992C10.6797 7.75586 10.9004 7.79883 11.1465 7.79883C11.4512 7.79883 11.7344 7.74023 11.9961 7.62305C12.2617 7.50195 12.4902 7.32031 12.6816 7.07812L13.502 7.96875C13.3691 8.16016 13.1875 8.34375 12.957 8.51953C12.7305 8.69531 12.457 8.83984 12.1367 8.95312C11.8164 9.0625 11.4512 9.11719 11.041 9.11719ZM18.0312 7.24805C18.0312 7.12695 17.9961 7.01758 17.9258 6.91992C17.8555 6.82227 17.7246 6.73242 17.5332 6.65039C17.3457 6.56445 17.0742 6.48633 16.7188 6.41602C16.3984 6.3457 16.0996 6.25781 15.8223 6.15234C15.5488 6.04297 15.3105 5.91211 15.1074 5.75977C14.9082 5.60742 14.752 5.42773 14.6387 5.2207C14.5254 5.00977 14.4688 4.76953 14.4688 4.5C14.4688 4.23438 14.5254 3.98438 14.6387 3.75C14.7559 3.51562 14.9219 3.30859 15.1367 3.12891C15.3555 2.94531 15.6211 2.80273 15.9336 2.70117C16.25 2.5957 16.6055 2.54297 17 2.54297C17.5508 2.54297 18.0234 2.63086 18.418 2.80664C18.8164 2.98242 19.1211 3.22461 19.332 3.5332C19.5469 3.83789 19.6543 4.18555 19.6543 4.57617H17.9668C17.9668 4.41211 17.9316 4.26562 17.8613 4.13672C17.7949 4.00391 17.6895 3.90039 17.5449 3.82617C17.4043 3.74805 17.2207 3.70898 16.9941 3.70898C16.8066 3.70898 16.6445 3.74219 16.5078 3.80859C16.3711 3.87109 16.2656 3.95703 16.1914 4.06641C16.1211 4.17188 16.0859 4.28906 16.0859 4.41797C16.0859 4.51562 16.1055 4.60352 16.1445 4.68164C16.1875 4.75586 16.2559 4.82422 16.3496 4.88672C16.4434 4.94922 16.5645 5.00781 16.7129 5.0625C16.8652 5.11328 17.0527 5.16016 17.2754 5.20312C17.7324 5.29688 18.1406 5.41992 18.5 5.57227C18.8594 5.7207 19.1445 5.92383 19.3555 6.18164C19.5664 6.43555 19.6719 6.76953 19.6719 7.18359C19.6719 7.46484 19.6094 7.72266 19.4844 7.95703C19.3594 8.19141 19.1797 8.39648 18.9453 8.57227C18.7109 8.74414 18.4297 8.87891 18.1016 8.97656C17.7773 9.07031 17.4121 9.11719 17.0059 9.11719C16.416 9.11719 15.916 9.01172 15.5059 8.80078C15.0996 8.58984 14.791 8.32227 14.5801 7.99805C14.373 7.66992 14.2695 7.33398 14.2695 6.99023H15.8691C15.877 7.2207 15.9355 7.40625 16.0449 7.54688C16.1582 7.6875 16.3008 7.78906 16.4727 7.85156C16.6484 7.91406 16.8379 7.94531 17.041 7.94531C17.2598 7.94531 17.4414 7.91602 17.5859 7.85742C17.7305 7.79492 17.8398 7.71289 17.9141 7.61133C17.9922 7.50586 18.0312 7.38477 18.0312 7.24805ZM22.5488 2.66016V9H20.8555V2.66016H22.5488ZM20.75 1.00781C20.75 0.761719 20.8359 0.558594 21.0078 0.398438C21.1797 0.238281 21.4102 0.158203 21.6992 0.158203C21.9844 0.158203 22.2129 0.238281 22.3848 0.398438C22.5605 0.558594 22.6484 0.761719 22.6484 1.00781C22.6484 1.25391 22.5605 1.45703 22.3848 1.61719C22.2129 1.77734 21.9844 1.85742 21.6992 1.85742C21.4102 1.85742 21.1797 1.77734 21.0078 1.61719C20.8359 1.45703 20.75 1.25391 20.75 1.00781ZM27.957 2.66016H29.4863V8.78906C29.4863 9.36719 29.3574 9.85742 29.0996 10.2598C28.8457 10.666 28.4902 10.9727 28.0332 11.1797C27.5762 11.3906 27.0449 11.4961 26.4395 11.4961C26.1738 11.4961 25.8926 11.4609 25.5957 11.3906C25.3027 11.3203 25.0215 11.2109 24.752 11.0625C24.4863 10.9141 24.2637 10.7266 24.084 10.5L24.8281 9.50391C25.0234 9.73047 25.25 9.90625 25.5078 10.0312C25.7656 10.1602 26.0508 10.2246 26.3633 10.2246C26.668 10.2246 26.9258 10.168 27.1367 10.0547C27.3477 9.94531 27.5098 9.7832 27.623 9.56836C27.7363 9.35742 27.793 9.10156 27.793 8.80078V4.125L27.957 2.66016ZM23.6914 5.90625V5.7832C23.6914 5.29883 23.75 4.85938 23.8672 4.46484C23.9883 4.06641 24.1582 3.72461 24.377 3.43945C24.5996 3.1543 24.8691 2.93359 25.1855 2.77734C25.502 2.62109 25.8594 2.54297 26.2578 2.54297C26.6797 2.54297 27.0332 2.62109 27.3184 2.77734C27.6035 2.93359 27.8379 3.15625 28.0215 3.44531C28.2051 3.73047 28.3477 4.06836 28.4492 4.45898C28.5547 4.8457 28.6367 5.26953 28.6953 5.73047V6C28.6367 6.44141 28.5488 6.85156 28.4316 7.23047C28.3145 7.60938 28.1602 7.94141 27.9688 8.22656C27.7773 8.50781 27.5391 8.72656 27.2539 8.88281C26.9727 9.03906 26.6367 9.11719 26.2461 9.11719C25.8555 9.11719 25.502 9.03711 25.1855 8.87695C24.873 8.7168 24.6055 8.49219 24.3828 8.20312C24.1602 7.91406 23.9883 7.57422 23.8672 7.18359C23.75 6.79297 23.6914 6.36719 23.6914 5.90625ZM25.3789 5.7832V5.90625C25.3789 6.16797 25.4043 6.41211 25.4551 6.63867C25.5059 6.86523 25.584 7.06641 25.6895 7.24219C25.7988 7.41406 25.9336 7.54883 26.0938 7.64648C26.2578 7.74023 26.4512 7.78711 26.6738 7.78711C26.9824 7.78711 27.2344 7.72266 27.4297 7.59375C27.625 7.46094 27.7715 7.2793 27.8691 7.04883C27.9668 6.81836 28.0234 6.55273 28.0391 6.25195V5.48438C28.0312 5.23828 27.998 5.01758 27.9395 4.82227C27.8809 4.62305 27.7988 4.45312 27.6934 4.3125C27.5879 4.17188 27.4512 4.0625 27.2832 3.98438C27.1152 3.90625 26.916 3.86719 26.6855 3.86719C26.4629 3.86719 26.2695 3.91797 26.1055 4.01953C25.9453 4.11719 25.8105 4.25195 25.7012 4.42383C25.5957 4.5957 25.5156 4.79883 25.4609 5.0332C25.4062 5.26367 25.3789 5.51367 25.3789 5.7832ZM32.4512 4.01367V9H30.7637V2.66016H32.3457L32.4512 4.01367ZM32.2051 5.60742H31.748C31.748 5.13867 31.8086 4.7168 31.9297 4.3418C32.0508 3.96289 32.2207 3.64062 32.4395 3.375C32.6582 3.10547 32.918 2.90039 33.2188 2.75977C33.5234 2.61523 33.8633 2.54297 34.2383 2.54297C34.5352 2.54297 34.8066 2.58594 35.0527 2.67188C35.2988 2.75781 35.5098 2.89453 35.6855 3.08203C35.8652 3.26953 36.002 3.51758 36.0957 3.82617C36.1934 4.13477 36.2422 4.51172 36.2422 4.95703V9H34.543V4.95117C34.543 4.66992 34.5039 4.45117 34.4258 4.29492C34.3477 4.13867 34.2324 4.0293 34.0801 3.9668C33.9316 3.90039 33.748 3.86719 33.5293 3.86719C33.3027 3.86719 33.1055 3.91211 32.9375 4.00195C32.7734 4.0918 32.6367 4.2168 32.5273 4.37695C32.4219 4.5332 32.3418 4.7168 32.2871 4.92773C32.2324 5.13867 32.2051 5.36523 32.2051 5.60742ZM40.4434 9.11719C39.9512 9.11719 39.5098 9.03906 39.1191 8.88281C38.7285 8.72266 38.3965 8.50195 38.123 8.2207C37.8535 7.93945 37.6465 7.61328 37.502 7.24219C37.3574 6.86719 37.2852 6.46875 37.2852 6.04688V5.8125C37.2852 5.33203 37.3535 4.89258 37.4902 4.49414C37.627 4.0957 37.8223 3.75 38.0762 3.45703C38.334 3.16406 38.6465 2.93945 39.0137 2.7832C39.3809 2.62305 39.7949 2.54297 40.2559 2.54297C40.7051 2.54297 41.1035 2.61719 41.4512 2.76562C41.7988 2.91406 42.0898 3.125 42.3242 3.39844C42.5625 3.67188 42.7422 4 42.8633 4.38281C42.9844 4.76172 43.0449 5.18359 43.0449 5.64844V6.35156H38.0059V5.22656H41.3867V5.09766C41.3867 4.86328 41.3438 4.6543 41.2578 4.4707C41.1758 4.2832 41.0508 4.13477 40.8828 4.02539C40.7148 3.91602 40.5 3.86133 40.2383 3.86133C40.0156 3.86133 39.8242 3.91016 39.6641 4.00781C39.5039 4.10547 39.373 4.24219 39.2715 4.41797C39.1738 4.59375 39.0996 4.80078 39.0488 5.03906C39.002 5.27344 38.9785 5.53125 38.9785 5.8125V6.04688C38.9785 6.30078 39.0137 6.53516 39.084 6.75C39.1582 6.96484 39.2617 7.15039 39.3945 7.30664C39.5312 7.46289 39.6953 7.58398 39.8867 7.66992C40.082 7.75586 40.3027 7.79883 40.5488 7.79883C40.8535 7.79883 41.1367 7.74023 41.3984 7.62305C41.6641 7.50195 41.8926 7.32031 42.084 7.07812L42.9043 7.96875C42.7715 8.16016 42.5898 8.34375 42.3594 8.51953C42.1328 8.69531 41.8594 8.83984 41.5391 8.95312C41.2188 9.0625 40.8535 9.11719 40.4434 9.11719ZM47.75 7.61719V0H49.4492V9H47.9199L47.75 7.61719ZM43.7422 5.90625V5.7832C43.7422 5.29883 43.7969 4.85938 43.9062 4.46484C44.0156 4.06641 44.1758 3.72461 44.3867 3.43945C44.5977 3.1543 44.8574 2.93359 45.166 2.77734C45.4746 2.62109 45.8262 2.54297 46.2207 2.54297C46.5918 2.54297 46.916 2.62109 47.1934 2.77734C47.4746 2.93359 47.7129 3.15625 47.9082 3.44531C48.1074 3.73047 48.2676 4.06836 48.3887 4.45898C48.5098 4.8457 48.5977 5.26953 48.6523 5.73047V6C48.5977 6.44141 48.5098 6.85156 48.3887 7.23047C48.2676 7.60938 48.1074 7.94141 47.9082 8.22656C47.7129 8.50781 47.4746 8.72656 47.1934 8.88281C46.9121 9.03906 46.584 9.11719 46.209 9.11719C45.8145 9.11719 45.4629 9.03711 45.1543 8.87695C44.8496 8.7168 44.5918 8.49219 44.3809 8.20312C44.1738 7.91406 44.0156 7.57422 43.9062 7.18359C43.7969 6.79297 43.7422 6.36719 43.7422 5.90625ZM45.4297 5.7832V5.90625C45.4297 6.16797 45.4492 6.41211 45.4883 6.63867C45.5312 6.86523 45.5996 7.06641 45.6934 7.24219C45.791 7.41406 45.916 7.54883 46.0684 7.64648C46.2246 7.74023 46.4141 7.78711 46.6367 7.78711C46.9258 7.78711 47.1641 7.72266 47.3516 7.59375C47.5391 7.46094 47.6816 7.2793 47.7793 7.04883C47.8809 6.81836 47.9395 6.55273 47.9551 6.25195V5.48438C47.9434 5.23828 47.9082 5.01758 47.8496 4.82227C47.7949 4.62305 47.7129 4.45312 47.6035 4.3125C47.498 4.17188 47.3652 4.0625 47.2051 3.98438C47.0488 3.90625 46.8633 3.86719 46.6484 3.86719C46.4297 3.86719 46.2422 3.91797 46.0859 4.01953C45.9297 4.11719 45.8027 4.25195 45.7051 4.42383C45.6113 4.5957 45.541 4.79883 45.4941 5.0332C45.4512 5.26367 45.4297 5.51367 45.4297 5.7832ZM57.1777 7.57031V4.74609C57.1777 4.54297 57.1445 4.36914 57.0781 4.22461C57.0117 4.07617 56.9082 3.96094 56.7676 3.87891C56.6309 3.79688 56.4531 3.75586 56.2344 3.75586C56.0469 3.75586 55.8848 3.78906 55.748 3.85547C55.6113 3.91797 55.5059 4.00977 55.4316 4.13086C55.3574 4.24805 55.3203 4.38672 55.3203 4.54688H53.6328C53.6328 4.27734 53.6953 4.02148 53.8203 3.7793C53.9453 3.53711 54.127 3.32422 54.3652 3.14062C54.6035 2.95312 54.8867 2.80664 55.2148 2.70117C55.5469 2.5957 55.918 2.54297 56.3281 2.54297C56.8203 2.54297 57.2578 2.625 57.6406 2.78906C58.0234 2.95312 58.3242 3.19922 58.543 3.52734C58.7656 3.85547 58.877 4.26562 58.877 4.75781V7.4707C58.877 7.81836 58.8984 8.10352 58.9414 8.32617C58.9844 8.54492 59.0469 8.73633 59.1289 8.90039V9H57.4238C57.3418 8.82812 57.2793 8.61328 57.2363 8.35547C57.1973 8.09375 57.1777 7.83203 57.1777 7.57031ZM57.4004 5.13867L57.4121 6.09375H56.4688C56.2461 6.09375 56.0527 6.11914 55.8887 6.16992C55.7246 6.2207 55.5898 6.29297 55.4844 6.38672C55.3789 6.47656 55.3008 6.58203 55.25 6.70312C55.2031 6.82422 55.1797 6.95703 55.1797 7.10156C55.1797 7.24609 55.2129 7.37695 55.2793 7.49414C55.3457 7.60742 55.4414 7.69727 55.5664 7.76367C55.6914 7.82617 55.8379 7.85742 56.0059 7.85742C56.2598 7.85742 56.4805 7.80664 56.668 7.70508C56.8555 7.60352 57 7.47852 57.1016 7.33008C57.207 7.18164 57.2617 7.04102 57.2656 6.9082L57.7109 7.62305C57.6484 7.7832 57.5625 7.94922 57.4531 8.12109C57.3477 8.29297 57.2129 8.45508 57.0488 8.60742C56.8848 8.75586 56.6875 8.87891 56.457 8.97656C56.2266 9.07031 55.9531 9.11719 55.6367 9.11719C55.2344 9.11719 54.8691 9.03711 54.541 8.87695C54.2168 8.71289 53.959 8.48828 53.7676 8.20312C53.5801 7.91406 53.4863 7.58594 53.4863 7.21875C53.4863 6.88672 53.5488 6.5918 53.6738 6.33398C53.7988 6.07617 53.9824 5.85938 54.2246 5.68359C54.4707 5.50391 54.7773 5.36914 55.1445 5.2793C55.5117 5.18555 55.9375 5.13867 56.4219 5.13867H57.4004ZM61.8301 4.01367V9H60.1426V2.66016H61.7246L61.8301 4.01367ZM61.584 5.60742H61.127C61.127 5.13867 61.1875 4.7168 61.3086 4.3418C61.4297 3.96289 61.5996 3.64062 61.8184 3.375C62.0371 3.10547 62.2969 2.90039 62.5977 2.75977C62.9023 2.61523 63.2422 2.54297 63.6172 2.54297C63.9141 2.54297 64.1855 2.58594 64.4316 2.67188C64.6777 2.75781 64.8887 2.89453 65.0645 3.08203C65.2441 3.26953 65.3809 3.51758 65.4746 3.82617C65.5723 4.13477 65.6211 4.51172 65.6211 4.95703V9H63.9219V4.95117C63.9219 4.66992 63.8828 4.45117 63.8047 4.29492C63.7266 4.13867 63.6113 4.0293 63.459 3.9668C63.3105 3.90039 63.127 3.86719 62.9082 3.86719C62.6816 3.86719 62.4844 3.91211 62.3164 4.00195C62.1523 4.0918 62.0156 4.2168 61.9062 4.37695C61.8008 4.5332 61.7207 4.7168 61.666 4.92773C61.6113 5.13867 61.584 5.36523 61.584 5.60742ZM70.6484 7.61719V0H72.3477V9H70.8184L70.6484 7.61719ZM66.6406 5.90625V5.7832C66.6406 5.29883 66.6953 4.85938 66.8047 4.46484C66.9141 4.06641 67.0742 3.72461 67.2852 3.43945C67.4961 3.1543 67.7559 2.93359 68.0645 2.77734C68.373 2.62109 68.7246 2.54297 69.1191 2.54297C69.4902 2.54297 69.8145 2.62109 70.0918 2.77734C70.373 2.93359 70.6113 3.15625 70.8066 3.44531C71.0059 3.73047 71.166 4.06836 71.2871 4.45898C71.4082 4.8457 71.4961 5.26953 71.5508 5.73047V6C71.4961 6.44141 71.4082 6.85156 71.2871 7.23047C71.166 7.60938 71.0059 7.94141 70.8066 8.22656C70.6113 8.50781 70.373 8.72656 70.0918 8.88281C69.8105 9.03906 69.4824 9.11719 69.1074 9.11719C68.7129 9.11719 68.3613 9.03711 68.0527 8.87695C67.748 8.7168 67.4902 8.49219 67.2793 8.20312C67.0723 7.91406 66.9141 7.57422 66.8047 7.18359C66.6953 6.79297 66.6406 6.36719 66.6406 5.90625ZM68.3281 5.7832V5.90625C68.3281 6.16797 68.3477 6.41211 68.3867 6.63867C68.4297 6.86523 68.498 7.06641 68.5918 7.24219C68.6895 7.41406 68.8145 7.54883 68.9668 7.64648C69.123 7.74023 69.3125 7.78711 69.5352 7.78711C69.8242 7.78711 70.0625 7.72266 70.25 7.59375C70.4375 7.46094 70.5801 7.2793 70.6777 7.04883C70.7793 6.81836 70.8379 6.55273 70.8535 6.25195V5.48438C70.8418 5.23828 70.8066 5.01758 70.748 4.82227C70.6934 4.62305 70.6113 4.45312 70.502 4.3125C70.3965 4.17188 70.2637 4.0625 70.1035 3.98438C69.9473 3.90625 69.7617 3.86719 69.5469 3.86719C69.3281 3.86719 69.1406 3.91797 68.9844 4.01953C68.8281 4.11719 68.7012 4.25195 68.6035 4.42383C68.5098 4.5957 68.4395 4.79883 68.3926 5.0332C68.3496 5.26367 68.3281 5.51367 68.3281 5.7832ZM79.3789 9H77.5215L77.5332 7.62891H79.3789C79.8398 7.62891 80.2285 7.52539 80.5449 7.31836C80.8613 7.10742 81.0996 6.80078 81.2598 6.39844C81.4238 5.99609 81.5059 5.50977 81.5059 4.93945V4.52344C81.5059 4.08594 81.459 3.70117 81.3652 3.36914C81.2754 3.03711 81.1406 2.75781 80.9609 2.53125C80.7812 2.30469 80.5605 2.13477 80.2988 2.02148C80.0371 1.9043 79.7363 1.8457 79.3965 1.8457H77.4863V0.46875H79.3965C79.9668 0.46875 80.4883 0.566406 80.9609 0.761719C81.4375 0.953125 81.8496 1.22852 82.1973 1.58789C82.5449 1.94727 82.8125 2.37695 83 2.87695C83.1914 3.37305 83.2871 3.92578 83.2871 4.53516V4.93945C83.2871 5.54492 83.1914 6.09766 83 6.59766C82.8125 7.09766 82.5449 7.52734 82.1973 7.88672C81.8535 8.24219 81.4414 8.51758 80.9609 8.71289C80.4844 8.9043 79.957 9 79.3789 9ZM78.5176 0.46875V9H76.7598V0.46875H78.5176ZM87.377 9.11719C86.8848 9.11719 86.4434 9.03906 86.0527 8.88281C85.6621 8.72266 85.3301 8.50195 85.0566 8.2207C84.7871 7.93945 84.5801 7.61328 84.4355 7.24219C84.291 6.86719 84.2188 6.46875 84.2188 6.04688V5.8125C84.2188 5.33203 84.2871 4.89258 84.4238 4.49414C84.5605 4.0957 84.7559 3.75 85.0098 3.45703C85.2676 3.16406 85.5801 2.93945 85.9473 2.7832C86.3145 2.62305 86.7285 2.54297 87.1895 2.54297C87.6387 2.54297 88.0371 2.61719 88.3848 2.76562C88.7324 2.91406 89.0234 3.125 89.2578 3.39844C89.4961 3.67188 89.6758 4 89.7969 4.38281C89.918 4.76172 89.9785 5.18359 89.9785 5.64844V6.35156H84.9395V5.22656H88.3203V5.09766C88.3203 4.86328 88.2773 4.6543 88.1914 4.4707C88.1094 4.2832 87.9844 4.13477 87.8164 4.02539C87.6484 3.91602 87.4336 3.86133 87.1719 3.86133C86.9492 3.86133 86.7578 3.91016 86.5977 4.00781C86.4375 4.10547 86.3066 4.24219 86.2051 4.41797C86.1074 4.59375 86.0332 4.80078 85.9824 5.03906C85.9355 5.27344 85.9121 5.53125 85.9121 5.8125V6.04688C85.9121 6.30078 85.9473 6.53516 86.0176 6.75C86.0918 6.96484 86.1953 7.15039 86.3281 7.30664C86.4648 7.46289 86.6289 7.58398 86.8203 7.66992C87.0156 7.75586 87.2363 7.79883 87.4824 7.79883C87.7871 7.79883 88.0703 7.74023 88.332 7.62305C88.5977 7.50195 88.8262 7.32031 89.0176 7.07812L89.8379 7.96875C89.7051 8.16016 89.5234 8.34375 89.293 8.51953C89.0664 8.69531 88.793 8.83984 88.4727 8.95312C88.1523 9.0625 87.7871 9.11719 87.377 9.11719ZM93.0137 7.76953L94.4199 2.66016H96.1836L94.0449 9H92.9785L93.0137 7.76953ZM92.0469 2.66016L93.459 7.77539L93.4883 9H92.416L90.2773 2.66016H92.0469ZM99.7754 9.11719C99.2832 9.11719 98.8418 9.03906 98.4512 8.88281C98.0605 8.72266 97.7285 8.50195 97.4551 8.2207C97.1855 7.93945 96.9785 7.61328 96.834 7.24219C96.6895 6.86719 96.6172 6.46875 96.6172 6.04688V5.8125C96.6172 5.33203 96.6855 4.89258 96.8223 4.49414C96.959 4.0957 97.1543 3.75 97.4082 3.45703C97.666 3.16406 97.9785 2.93945 98.3457 2.7832C98.7129 2.62305 99.127 2.54297 99.5879 2.54297C100.037 2.54297 100.436 2.61719 100.783 2.76562C101.131 2.91406 101.422 3.125 101.656 3.39844C101.895 3.67188 102.074 4 102.195 4.38281C102.316 4.76172 102.377 5.18359 102.377 5.64844V6.35156H97.3379V5.22656H100.719V5.09766C100.719 4.86328 100.676 4.6543 100.59 4.4707C100.508 4.2832 100.383 4.13477 100.215 4.02539C100.047 3.91602 99.832 3.86133 99.5703 3.86133C99.3477 3.86133 99.1562 3.91016 98.9961 4.00781C98.8359 4.10547 98.7051 4.24219 98.6035 4.41797C98.5059 4.59375 98.4316 4.80078 98.3809 5.03906C98.334 5.27344 98.3105 5.53125 98.3105 5.8125V6.04688C98.3105 6.30078 98.3457 6.53516 98.416 6.75C98.4902 6.96484 98.5938 7.15039 98.7266 7.30664C98.8633 7.46289 99.0273 7.58398 99.2188 7.66992C99.4141 7.75586 99.6348 7.79883 99.8809 7.79883C100.186 7.79883 100.469 7.74023 100.73 7.62305C100.996 7.50195 101.225 7.32031 101.416 7.07812L102.236 7.96875C102.104 8.16016 101.922 8.34375 101.691 8.51953C101.465 8.69531 101.191 8.83984 100.871 8.95312C100.551 9.0625 100.186 9.11719 99.7754 9.11719ZM105.119 0V9H103.426V0H105.119ZM106.244 5.89453V5.77148C106.244 5.30664 106.311 4.87891 106.443 4.48828C106.576 4.09375 106.77 3.75195 107.023 3.46289C107.277 3.17383 107.59 2.94922 107.961 2.78906C108.332 2.625 108.758 2.54297 109.238 2.54297C109.719 2.54297 110.146 2.625 110.521 2.78906C110.896 2.94922 111.211 3.17383 111.465 3.46289C111.723 3.75195 111.918 4.09375 112.051 4.48828C112.184 4.87891 112.25 5.30664 112.25 5.77148V5.89453C112.25 6.35547 112.184 6.7832 112.051 7.17773C111.918 7.56836 111.723 7.91016 111.465 8.20312C111.211 8.49219 110.898 8.7168 110.527 8.87695C110.156 9.03711 109.73 9.11719 109.25 9.11719C108.77 9.11719 108.342 9.03711 107.967 8.87695C107.596 8.7168 107.281 8.49219 107.023 8.20312C106.77 7.91016 106.576 7.56836 106.443 7.17773C106.311 6.7832 106.244 6.35547 106.244 5.89453ZM107.932 5.77148V5.89453C107.932 6.16016 107.955 6.4082 108.002 6.63867C108.049 6.86914 108.123 7.07227 108.225 7.24805C108.33 7.41992 108.467 7.55469 108.635 7.65234C108.803 7.75 109.008 7.79883 109.25 7.79883C109.484 7.79883 109.686 7.75 109.854 7.65234C110.021 7.55469 110.156 7.41992 110.258 7.24805C110.359 7.07227 110.434 6.86914 110.48 6.63867C110.531 6.4082 110.557 6.16016 110.557 5.89453V5.77148C110.557 5.51367 110.531 5.27148 110.48 5.04492C110.434 4.81445 110.357 4.61133 110.252 4.43555C110.15 4.25586 110.016 4.11523 109.848 4.01367C109.68 3.91211 109.477 3.86133 109.238 3.86133C109 3.86133 108.797 3.91211 108.629 4.01367C108.465 4.11523 108.33 4.25586 108.225 4.43555C108.123 4.61133 108.049 4.81445 108.002 5.04492C107.955 5.27148 107.932 5.51367 107.932 5.77148ZM114.975 3.87891V11.4375H113.287V2.66016H114.852L114.975 3.87891ZM118.988 5.75977V5.88281C118.988 6.34375 118.934 6.77148 118.824 7.16602C118.719 7.56055 118.562 7.9043 118.355 8.19727C118.148 8.48633 117.891 8.71289 117.582 8.87695C117.277 9.03711 116.926 9.11719 116.527 9.11719C116.141 9.11719 115.805 9.03906 115.52 8.88281C115.234 8.72656 114.994 8.50781 114.799 8.22656C114.607 7.94141 114.453 7.61133 114.336 7.23633C114.219 6.86133 114.129 6.45898 114.066 6.0293V5.70703C114.129 5.24609 114.219 4.82422 114.336 4.44141C114.453 4.05469 114.607 3.7207 114.799 3.43945C114.994 3.1543 115.232 2.93359 115.514 2.77734C115.799 2.62109 116.133 2.54297 116.516 2.54297C116.918 2.54297 117.271 2.61914 117.576 2.77148C117.885 2.92383 118.143 3.14258 118.35 3.42773C118.561 3.71289 118.719 4.05273 118.824 4.44727C118.934 4.8418 118.988 5.2793 118.988 5.75977ZM117.295 5.88281V5.75977C117.295 5.49023 117.271 5.24219 117.225 5.01562C117.182 4.78516 117.111 4.58398 117.014 4.41211C116.92 4.24023 116.795 4.10742 116.639 4.01367C116.486 3.91602 116.301 3.86719 116.082 3.86719C115.852 3.86719 115.654 3.9043 115.49 3.97852C115.33 4.05273 115.199 4.16016 115.098 4.30078C114.996 4.44141 114.92 4.60938 114.869 4.80469C114.818 5 114.787 5.2207 114.775 5.4668V6.28125C114.795 6.57031 114.85 6.83008 114.939 7.06055C115.029 7.28711 115.168 7.4668 115.355 7.59961C115.543 7.73242 115.789 7.79883 116.094 7.79883C116.316 7.79883 116.504 7.75 116.656 7.65234C116.809 7.55078 116.932 7.41211 117.025 7.23633C117.123 7.06055 117.191 6.85742 117.23 6.62695C117.273 6.39648 117.295 6.14844 117.295 5.88281ZM122.955 9.11719C122.463 9.11719 122.021 9.03906 121.631 8.88281C121.24 8.72266 120.908 8.50195 120.635 8.2207C120.365 7.93945 120.158 7.61328 120.014 7.24219C119.869 6.86719 119.797 6.46875 119.797 6.04688V5.8125C119.797 5.33203 119.865 4.89258 120.002 4.49414C120.139 4.0957 120.334 3.75 120.588 3.45703C120.846 3.16406 121.158 2.93945 121.525 2.7832C121.893 2.62305 122.307 2.54297 122.768 2.54297C123.217 2.54297 123.615 2.61719 123.963 2.76562C124.311 2.91406 124.602 3.125 124.836 3.39844C125.074 3.67188 125.254 4 125.375 4.38281C125.496 4.76172 125.557 5.18359 125.557 5.64844V6.35156H120.518V5.22656H123.898V5.09766C123.898 4.86328 123.855 4.6543 123.77 4.4707C123.688 4.2832 123.562 4.13477 123.395 4.02539C123.227 3.91602 123.012 3.86133 122.75 3.86133C122.527 3.86133 122.336 3.91016 122.176 4.00781C122.016 4.10547 121.885 4.24219 121.783 4.41797C121.686 4.59375 121.611 4.80078 121.561 5.03906C121.514 5.27344 121.49 5.53125 121.49 5.8125V6.04688C121.49 6.30078 121.525 6.53516 121.596 6.75C121.67 6.96484 121.773 7.15039 121.906 7.30664C122.043 7.46289 122.207 7.58398 122.398 7.66992C122.594 7.75586 122.814 7.79883 123.061 7.79883C123.365 7.79883 123.648 7.74023 123.91 7.62305C124.176 7.50195 124.404 7.32031 124.596 7.07812L125.416 7.96875C125.283 8.16016 125.102 8.34375 124.871 8.51953C124.645 8.69531 124.371 8.83984 124.051 8.95312C123.73 9.0625 123.365 9.11719 122.955 9.11719ZM130.262 7.61719V0H131.961V9H130.432L130.262 7.61719ZM126.254 5.90625V5.7832C126.254 5.29883 126.309 4.85938 126.418 4.46484C126.527 4.06641 126.688 3.72461 126.898 3.43945C127.109 3.1543 127.369 2.93359 127.678 2.77734C127.986 2.62109 128.338 2.54297 128.732 2.54297C129.104 2.54297 129.428 2.62109 129.705 2.77734C129.986 2.93359 130.225 3.15625 130.42 3.44531C130.619 3.73047 130.779 4.06836 130.9 4.45898C131.021 4.8457 131.109 5.26953 131.164 5.73047V6C131.109 6.44141 131.021 6.85156 130.9 7.23047C130.779 7.60938 130.619 7.94141 130.42 8.22656C130.225 8.50781 129.986 8.72656 129.705 8.88281C129.424 9.03906 129.096 9.11719 128.721 9.11719C128.326 9.11719 127.975 9.03711 127.666 8.87695C127.361 8.7168 127.104 8.49219 126.893 8.20312C126.686 7.91406 126.527 7.57422 126.418 7.18359C126.309 6.79297 126.254 6.36719 126.254 5.90625ZM127.941 5.7832V5.90625C127.941 6.16797 127.961 6.41211 128 6.63867C128.043 6.86523 128.111 7.06641 128.205 7.24219C128.303 7.41406 128.428 7.54883 128.58 7.64648C128.736 7.74023 128.926 7.78711 129.148 7.78711C129.438 7.78711 129.676 7.72266 129.863 7.59375C130.051 7.46094 130.193 7.2793 130.291 7.04883C130.393 6.81836 130.451 6.55273 130.467 6.25195V5.48438C130.455 5.23828 130.42 5.01758 130.361 4.82227C130.307 4.62305 130.225 4.45312 130.115 4.3125C130.01 4.17188 129.877 4.0625 129.717 3.98438C129.561 3.90625 129.375 3.86719 129.16 3.86719C128.941 3.86719 128.754 3.91797 128.598 4.01953C128.441 4.11719 128.314 4.25195 128.217 4.42383C128.123 4.5957 128.053 4.79883 128.006 5.0332C127.963 5.26367 127.941 5.51367 127.941 5.7832ZM136.268 0H137.955V7.54688L137.785 9H136.268V0ZM141.969 5.76562V5.88867C141.969 6.36133 141.918 6.79492 141.816 7.18945C141.719 7.58398 141.566 7.92578 141.359 8.21484C141.152 8.5 140.895 8.72266 140.586 8.88281C140.281 9.03906 139.922 9.11719 139.508 9.11719C139.121 9.11719 138.785 9.03906 138.5 8.88281C138.219 8.72656 137.982 8.50586 137.791 8.2207C137.6 7.93555 137.445 7.60156 137.328 7.21875C137.211 6.83594 137.123 6.41797 137.064 5.96484V5.69531C137.123 5.24219 137.211 4.82422 137.328 4.44141C137.445 4.05859 137.6 3.72461 137.791 3.43945C137.982 3.1543 138.219 2.93359 138.5 2.77734C138.781 2.62109 139.113 2.54297 139.496 2.54297C139.914 2.54297 140.277 2.62305 140.586 2.7832C140.898 2.93945 141.156 3.16211 141.359 3.45117C141.566 3.73633 141.719 4.07617 141.816 4.4707C141.918 4.86133 141.969 5.29297 141.969 5.76562ZM140.281 5.88867V5.76562C140.281 5.50781 140.262 5.26562 140.223 5.03906C140.188 4.80859 140.125 4.60742 140.035 4.43555C139.945 4.25977 139.822 4.12109 139.666 4.01953C139.514 3.91797 139.316 3.86719 139.074 3.86719C138.844 3.86719 138.648 3.90625 138.488 3.98438C138.328 4.0625 138.195 4.17188 138.09 4.3125C137.988 4.45312 137.912 4.62109 137.861 4.81641C137.811 5.00781 137.779 5.21875 137.768 5.44922V6.2168C137.779 6.52539 137.83 6.79883 137.92 7.03711C138.014 7.27148 138.154 7.45703 138.342 7.59375C138.533 7.72656 138.781 7.79297 139.086 7.79297C139.324 7.79297 139.521 7.74609 139.678 7.65234C139.834 7.55859 139.955 7.42578 140.041 7.25391C140.131 7.08203 140.193 6.88086 140.229 6.65039C140.264 6.41602 140.281 6.16211 140.281 5.88867ZM144.828 8.28516L146.51 2.66016H148.32L145.771 9.95508C145.717 10.1152 145.643 10.2871 145.549 10.4707C145.459 10.6543 145.336 10.8281 145.18 10.9922C145.027 11.1602 144.834 11.2969 144.6 11.4023C144.369 11.5078 144.086 11.5605 143.75 11.5605C143.59 11.5605 143.459 11.5508 143.357 11.5312C143.256 11.5117 143.135 11.4844 142.994 11.4492V10.2129C143.037 10.2129 143.082 10.2129 143.129 10.2129C143.176 10.2168 143.221 10.2188 143.264 10.2188C143.486 10.2188 143.668 10.1934 143.809 10.1426C143.949 10.0918 144.062 10.0137 144.148 9.9082C144.234 9.80664 144.303 9.67383 144.354 9.50977L144.828 8.28516ZM144.125 2.66016L145.502 7.25391L145.742 9.04102L144.594 9.16406L142.314 2.66016H144.125Z" fill="white"/>
<path d="M54.0459 21.9443V15.0469H56.0898V21.9443C56.0898 22.6097 55.944 23.1816 55.6523 23.6602C55.3607 24.1341 54.9619 24.4987 54.4561 24.7539C53.9548 25.0091 53.3896 25.1367 52.7607 25.1367C52.109 25.1367 51.5326 25.0273 51.0312 24.8086C50.5299 24.5898 50.1357 24.2549 49.8486 23.8037C49.5615 23.348 49.418 22.7715 49.418 22.0742H51.4756C51.4756 22.4388 51.5257 22.7282 51.626 22.9424C51.7308 23.1566 51.8789 23.3092 52.0703 23.4004C52.2617 23.4915 52.4919 23.5371 52.7607 23.5371C53.0205 23.5371 53.2461 23.4756 53.4375 23.3525C53.6289 23.2295 53.777 23.0495 53.8818 22.8125C53.9912 22.5755 54.0459 22.2861 54.0459 21.9443ZM59.6855 19.0254V27.8438H57.7168V17.6035H59.542L59.6855 19.0254ZM64.3682 21.2197V21.3633C64.3682 21.901 64.3044 22.4001 64.1768 22.8604C64.0537 23.3206 63.8714 23.7217 63.6299 24.0635C63.3883 24.4007 63.0876 24.665 62.7275 24.8564C62.3721 25.0433 61.9619 25.1367 61.4971 25.1367C61.0459 25.1367 60.654 25.0456 60.3213 24.8633C59.9886 24.681 59.7083 24.4258 59.4805 24.0977C59.2572 23.765 59.0771 23.3799 58.9404 22.9424C58.8037 22.5049 58.6989 22.0355 58.626 21.5342V21.1582C58.6989 20.6204 58.8037 20.1283 58.9404 19.6816C59.0771 19.2305 59.2572 18.8408 59.4805 18.5127C59.7083 18.18 59.9863 17.9225 60.3145 17.7402C60.6471 17.5579 61.0368 17.4668 61.4834 17.4668C61.9528 17.4668 62.3652 17.5557 62.7207 17.7334C63.0807 17.9111 63.3815 18.1663 63.623 18.499C63.8691 18.8317 64.0537 19.2282 64.1768 19.6885C64.3044 20.1488 64.3682 20.6592 64.3682 21.2197ZM62.3926 21.3633V21.2197C62.3926 20.9053 62.3652 20.6159 62.3105 20.3516C62.2604 20.0827 62.1784 19.848 62.0645 19.6475C61.9551 19.4469 61.8092 19.292 61.627 19.1826C61.4492 19.0687 61.2327 19.0117 60.9775 19.0117C60.7087 19.0117 60.4785 19.055 60.2871 19.1416C60.1003 19.2282 59.9476 19.3535 59.8291 19.5176C59.7106 19.6816 59.6217 19.8776 59.5625 20.1055C59.5033 20.3333 59.4668 20.5908 59.4531 20.8779V21.8281C59.4759 22.1654 59.5397 22.4684 59.6445 22.7373C59.7493 23.0016 59.9111 23.2113 60.1299 23.3662C60.3486 23.5212 60.6357 23.5986 60.9912 23.5986C61.251 23.5986 61.4697 23.5417 61.6475 23.4277C61.8252 23.3092 61.9688 23.1475 62.0781 22.9424C62.1921 22.7373 62.2718 22.5003 62.3174 22.2314C62.3675 21.9626 62.3926 21.6732 62.3926 21.3633ZM69.584 23.332V20.0371C69.584 19.8001 69.5452 19.5973 69.4678 19.4287C69.3903 19.2555 69.2695 19.1211 69.1055 19.0254C68.946 18.9297 68.7386 18.8818 68.4834 18.8818C68.2646 18.8818 68.0755 18.9206 67.916 18.998C67.7565 19.071 67.6335 19.1781 67.5469 19.3193C67.4603 19.4561 67.417 19.6178 67.417 19.8047H65.4482C65.4482 19.4902 65.5212 19.1917 65.667 18.9092C65.8128 18.6266 66.0247 18.3783 66.3027 18.1641C66.5807 17.9453 66.9111 17.7744 67.2939 17.6514C67.6813 17.5283 68.1143 17.4668 68.5928 17.4668C69.167 17.4668 69.6774 17.5625 70.124 17.7539C70.5706 17.9453 70.9215 18.2324 71.1768 18.6152C71.4365 18.998 71.5664 19.4766 71.5664 20.0508V23.2158C71.5664 23.6214 71.5915 23.9541 71.6416 24.2139C71.6917 24.4691 71.7646 24.6924 71.8604 24.8838V25H69.8711C69.7754 24.7995 69.7025 24.5488 69.6523 24.248C69.6068 23.9427 69.584 23.6374 69.584 23.332ZM69.8438 20.4951L69.8574 21.6094H68.7568C68.4971 21.6094 68.2715 21.639 68.0801 21.6982C67.8887 21.7575 67.7314 21.8418 67.6084 21.9512C67.4854 22.056 67.3942 22.179 67.335 22.3203C67.2803 22.4616 67.2529 22.6165 67.2529 22.7852C67.2529 22.9538 67.2917 23.1064 67.3691 23.2432C67.4466 23.3753 67.5583 23.4801 67.7041 23.5576C67.8499 23.6305 68.0208 23.667 68.2168 23.667C68.513 23.667 68.7705 23.6077 68.9893 23.4893C69.208 23.3708 69.3766 23.2249 69.4951 23.0518C69.6182 22.8786 69.682 22.7145 69.6865 22.5596L70.2061 23.3936C70.1331 23.5804 70.0329 23.7741 69.9053 23.9746C69.7822 24.1751 69.625 24.3643 69.4336 24.542C69.2422 24.7152 69.012 24.8587 68.7432 24.9727C68.4743 25.082 68.1553 25.1367 67.7861 25.1367C67.3167 25.1367 66.8906 25.0433 66.5078 24.8564C66.1296 24.665 65.8288 24.403 65.6055 24.0703C65.3867 23.7331 65.2773 23.3503 65.2773 22.9219C65.2773 22.5345 65.3503 22.1904 65.4961 21.8896C65.6419 21.5889 65.8561 21.3359 66.1387 21.1309C66.4258 20.9212 66.7835 20.764 67.2119 20.6592C67.6403 20.5498 68.137 20.4951 68.7021 20.4951H69.8438ZM73.084 14.5H75.0527V23.3047L74.8545 25H73.084V14.5ZM79.7354 21.2266V21.3701C79.7354 21.9215 79.6761 22.4274 79.5576 22.8877C79.4437 23.348 79.266 23.7467 79.0244 24.084C78.7829 24.4167 78.4821 24.6764 78.1221 24.8633C77.7666 25.0456 77.3473 25.1367 76.8643 25.1367C76.4131 25.1367 76.0212 25.0456 75.6885 24.8633C75.3604 24.681 75.0846 24.4235 74.8613 24.0908C74.638 23.7581 74.458 23.3685 74.3213 22.9219C74.1846 22.4753 74.082 21.9876 74.0137 21.459V21.1445C74.082 20.6159 74.1846 20.1283 74.3213 19.6816C74.458 19.235 74.638 18.8454 74.8613 18.5127C75.0846 18.18 75.3604 17.9225 75.6885 17.7402C76.0166 17.5579 76.404 17.4668 76.8506 17.4668C77.3382 17.4668 77.762 17.5602 78.1221 17.7471C78.4867 17.9294 78.7874 18.1891 79.0244 18.5264C79.266 18.859 79.4437 19.2555 79.5576 19.7158C79.6761 20.1715 79.7354 20.6751 79.7354 21.2266ZM77.7666 21.3701V21.2266C77.7666 20.9258 77.7438 20.6432 77.6982 20.3789C77.6572 20.11 77.5843 19.8753 77.4795 19.6748C77.3747 19.4697 77.2311 19.3079 77.0488 19.1895C76.8711 19.071 76.641 19.0117 76.3584 19.0117C76.0895 19.0117 75.8617 19.0573 75.6748 19.1484C75.488 19.2396 75.333 19.3672 75.21 19.5312C75.0915 19.6953 75.0026 19.8913 74.9434 20.1191C74.8841 20.3424 74.8477 20.5885 74.834 20.8574V21.7529C74.8477 22.113 74.9069 22.432 75.0117 22.71C75.1211 22.9834 75.2852 23.1999 75.5039 23.3594C75.7272 23.5143 76.0166 23.5918 76.3721 23.5918C76.6501 23.5918 76.8802 23.5371 77.0625 23.4277C77.2448 23.3184 77.3861 23.1634 77.4863 22.9629C77.5911 22.7624 77.6641 22.5277 77.7051 22.2588C77.7461 21.9854 77.7666 21.6891 77.7666 21.3701ZM83.0371 14.5V25H81.0615V14.5H83.0371ZM89.0391 23.2295V17.6035H91.0078V25H89.1553L89.0391 23.2295ZM89.2578 21.7119L89.8389 21.6982C89.8389 22.1904 89.7819 22.6484 89.668 23.0723C89.554 23.4915 89.3831 23.8561 89.1553 24.166C88.9274 24.4714 88.6403 24.7106 88.2939 24.8838C87.9476 25.0524 87.5397 25.1367 87.0703 25.1367C86.7103 25.1367 86.3776 25.0866 86.0723 24.9863C85.7715 24.8815 85.5117 24.7197 85.293 24.501C85.0788 24.2777 84.9102 23.9928 84.7871 23.6465C84.6686 23.2956 84.6094 22.874 84.6094 22.3818V17.6035H86.5781V22.3955C86.5781 22.6143 86.6032 22.7988 86.6533 22.9492C86.708 23.0996 86.7832 23.2227 86.8789 23.3184C86.9746 23.4141 87.0863 23.4824 87.2139 23.5234C87.346 23.5645 87.4919 23.585 87.6514 23.585C88.057 23.585 88.376 23.5029 88.6084 23.3389C88.8454 23.1748 89.0117 22.9515 89.1074 22.6689C89.2077 22.3818 89.2578 22.0628 89.2578 21.7119ZM94.0977 17.6035L95.3213 19.8525L96.5791 17.6035H98.6777L96.5859 21.2197L98.7734 25H96.668L95.335 22.6211L94.002 25H91.8965L94.084 21.2197L91.9922 17.6035H94.0977Z" fill="#00EFFE"/>
</svg>
