<svg width="246" height="140" viewBox="0 0 246 140" fill="none" xmlns="http://www.w3.org/2000/svg">
<path d="M31.875 125.623V135.766C31.4766 136.246 30.8613 136.768 30.0293 137.33C29.1973 137.881 28.125 138.355 26.8125 138.754C25.5 139.152 23.9121 139.352 22.0488 139.352C20.3965 139.352 18.8906 139.082 17.5312 138.543C16.1719 137.992 15 137.189 14.0156 136.135C13.043 135.08 12.293 133.791 11.7656 132.268C11.2383 130.732 10.9746 128.98 10.9746 127.012V125.412C10.9746 123.443 11.2266 121.691 11.7305 120.156C12.2461 118.621 12.9785 117.326 13.9277 116.271C14.877 115.217 16.0078 114.414 17.3203 113.863C18.6328 113.312 20.0918 113.037 21.6973 113.037C23.9238 113.037 25.752 113.4 27.1816 114.127C28.6113 114.842 29.7012 115.838 30.4512 117.115C31.2129 118.381 31.6816 119.834 31.8574 121.475H26.7422C26.6133 120.607 26.3672 119.852 26.0039 119.207C25.6406 118.562 25.1191 118.059 24.4395 117.695C23.7715 117.332 22.9043 117.15 21.8379 117.15C20.959 117.15 20.1738 117.332 19.4824 117.695C18.8027 118.047 18.2285 118.568 17.7598 119.26C17.291 119.951 16.9336 120.807 16.6875 121.826C16.4414 122.846 16.3184 124.029 16.3184 125.377V127.012C16.3184 128.348 16.4473 129.531 16.7051 130.562C16.9629 131.582 17.3438 132.443 17.8477 133.146C18.3633 133.838 18.9961 134.359 19.7461 134.711C20.4961 135.062 21.3691 135.238 22.3652 135.238C23.1973 135.238 23.8887 135.168 24.4395 135.027C25.002 134.887 25.4531 134.717 25.793 134.518C26.1445 134.307 26.4141 134.107 26.6016 133.92V129.385H21.7852V125.623H31.875ZM44.5664 139.352C43.0898 139.352 41.7656 139.117 40.5938 138.648C39.4219 138.168 38.4258 137.506 37.6055 136.662C36.7969 135.818 36.1758 134.84 35.7422 133.727C35.3086 132.602 35.0918 131.406 35.0918 130.141V129.438C35.0918 127.996 35.2969 126.678 35.707 125.482C36.1172 124.287 36.7031 123.25 37.4648 122.371C38.2383 121.492 39.1758 120.818 40.2773 120.35C41.3789 119.869 42.6211 119.629 44.0039 119.629C45.3516 119.629 46.5469 119.852 47.5898 120.297C48.6328 120.742 49.5059 121.375 50.209 122.195C50.9238 123.016 51.4629 124 51.8262 125.148C52.1895 126.285 52.3711 127.551 52.3711 128.945V131.055H37.2539V127.68H47.3965V127.293C47.3965 126.59 47.2676 125.963 47.0098 125.412C46.7637 124.85 46.3887 124.404 45.8848 124.076C45.3809 123.748 44.7363 123.584 43.9512 123.584C43.2832 123.584 42.709 123.73 42.2285 124.023C41.748 124.316 41.3555 124.727 41.0508 125.254C40.7578 125.781 40.5352 126.402 40.3828 127.117C40.2422 127.82 40.1719 128.594 40.1719 129.438V130.141C40.1719 130.902 40.2773 131.605 40.4883 132.25C40.7109 132.895 41.0215 133.451 41.4199 133.92C41.8301 134.389 42.3223 134.752 42.8965 135.01C43.4824 135.268 44.1445 135.396 44.8828 135.396C45.7969 135.396 46.6465 135.221 47.4316 134.869C48.2285 134.506 48.9141 133.961 49.4883 133.234L51.9492 135.906C51.5508 136.48 51.0059 137.031 50.3145 137.559C49.6348 138.086 48.8145 138.52 47.8535 138.859C46.8926 139.188 45.7969 139.352 44.5664 139.352ZM54.4453 129.684V129.314C54.4453 127.92 54.6445 126.637 55.043 125.465C55.4414 124.281 56.0215 123.256 56.7832 122.389C57.5449 121.521 58.4824 120.848 59.5957 120.367C60.709 119.875 61.9863 119.629 63.4277 119.629C64.8691 119.629 66.1523 119.875 67.2773 120.367C68.4023 120.848 69.3457 121.521 70.1074 122.389C70.8809 123.256 71.4668 124.281 71.8652 125.465C72.2637 126.637 72.4629 127.92 72.4629 129.314V129.684C72.4629 131.066 72.2637 132.35 71.8652 133.533C71.4668 134.705 70.8809 135.73 70.1074 136.609C69.3457 137.477 68.4082 138.15 67.2949 138.631C66.1816 139.111 64.9043 139.352 63.4629 139.352C62.0215 139.352 60.7383 139.111 59.6133 138.631C58.5 138.15 57.5566 137.477 56.7832 136.609C56.0215 135.73 55.4414 134.705 55.043 133.533C54.6445 132.35 54.4453 131.066 54.4453 129.684ZM59.5078 129.314V129.684C59.5078 130.48 59.5781 131.225 59.7188 131.916C59.8594 132.607 60.082 133.217 60.3867 133.744C60.7031 134.26 61.1133 134.664 61.6172 134.957C62.1211 135.25 62.7363 135.396 63.4629 135.396C64.166 135.396 64.7695 135.25 65.2734 134.957C65.7773 134.664 66.1816 134.26 66.4863 133.744C66.791 133.217 67.0137 132.607 67.1543 131.916C67.3066 131.225 67.3828 130.48 67.3828 129.684V129.314C67.3828 128.541 67.3066 127.814 67.1543 127.135C67.0137 126.443 66.7852 125.834 66.4688 125.307C66.1641 124.768 65.7598 124.346 65.2559 124.041C64.752 123.736 64.1426 123.584 63.4277 123.584C62.7129 123.584 62.1035 123.736 61.5996 124.041C61.1074 124.346 60.7031 124.768 60.3867 125.307C60.082 125.834 59.8594 126.443 59.7188 127.135C59.5781 127.814 59.5078 128.541 59.5078 129.314ZM80.6367 123.918V139H75.5566V119.98H80.3203L80.6367 123.918ZM79.9336 128.822H78.5273C78.5273 127.498 78.6855 126.279 79.002 125.166C79.3301 124.041 79.8047 123.068 80.4258 122.248C81.0586 121.416 81.8379 120.771 82.7637 120.314C83.6895 119.857 84.7617 119.629 85.9805 119.629C86.8242 119.629 87.5977 119.758 88.3008 120.016C89.0039 120.262 89.6074 120.654 90.1113 121.193C90.627 121.721 91.0254 122.412 91.3066 123.268C91.5879 124.111 91.7285 125.125 91.7285 126.309V139H86.666V126.871C86.666 126.004 86.5488 125.336 86.3145 124.867C86.0801 124.398 85.7461 124.07 85.3125 123.883C84.8906 123.695 84.3809 123.602 83.7832 123.602C83.127 123.602 82.5527 123.736 82.0605 124.006C81.5801 124.275 81.1816 124.65 80.8652 125.131C80.5488 125.6 80.3145 126.15 80.1621 126.783C80.0098 127.416 79.9336 128.096 79.9336 128.822ZM91.2539 128.242L89.4434 128.471C89.4434 127.229 89.5957 126.074 89.9004 125.008C90.2168 123.941 90.6797 123.004 91.2891 122.195C91.9102 121.387 92.6777 120.76 93.5918 120.314C94.5059 119.857 95.5605 119.629 96.7559 119.629C97.6699 119.629 98.502 119.764 99.252 120.033C100.002 120.291 100.641 120.707 101.168 121.281C101.707 121.844 102.117 122.582 102.398 123.496C102.691 124.41 102.838 125.529 102.838 126.854V139H97.7578V126.854C97.7578 125.975 97.6406 125.307 97.4062 124.85C97.1836 124.381 96.8555 124.059 96.4219 123.883C96 123.695 95.4961 123.602 94.9102 123.602C94.3008 123.602 93.7676 123.725 93.3105 123.971C92.8535 124.205 92.4727 124.533 92.168 124.955C91.8633 125.377 91.6348 125.869 91.4824 126.432C91.3301 126.982 91.2539 127.586 91.2539 128.242ZM115.512 139.352C114.035 139.352 112.711 139.117 111.539 138.648C110.367 138.168 109.371 137.506 108.551 136.662C107.742 135.818 107.121 134.84 106.688 133.727C106.254 132.602 106.037 131.406 106.037 130.141V129.438C106.037 127.996 106.242 126.678 106.652 125.482C107.062 124.287 107.648 123.25 108.41 122.371C109.184 121.492 110.121 120.818 111.223 120.35C112.324 119.869 113.566 119.629 114.949 119.629C116.297 119.629 117.492 119.852 118.535 120.297C119.578 120.742 120.451 121.375 121.154 122.195C121.869 123.016 122.408 124 122.771 125.148C123.135 126.285 123.316 127.551 123.316 128.945V131.055H108.199V127.68H118.342V127.293C118.342 126.59 118.213 125.963 117.955 125.412C117.709 124.85 117.334 124.404 116.83 124.076C116.326 123.748 115.682 123.584 114.896 123.584C114.229 123.584 113.654 123.73 113.174 124.023C112.693 124.316 112.301 124.727 111.996 125.254C111.703 125.781 111.48 126.402 111.328 127.117C111.188 127.82 111.117 128.594 111.117 129.438V130.141C111.117 130.902 111.223 131.605 111.434 132.25C111.656 132.895 111.967 133.451 112.365 133.92C112.775 134.389 113.268 134.752 113.842 135.01C114.428 135.268 115.09 135.396 115.828 135.396C116.742 135.396 117.592 135.221 118.377 134.869C119.174 134.506 119.859 133.961 120.434 133.234L122.895 135.906C122.496 136.48 121.951 137.031 121.26 137.559C120.58 138.086 119.76 138.52 118.799 138.859C117.838 139.188 116.742 139.352 115.512 139.352ZM135.516 119.98V123.566H124.441V119.98H135.516ZM127.184 115.287H132.246V133.27C132.246 133.82 132.316 134.242 132.457 134.535C132.609 134.828 132.832 135.033 133.125 135.15C133.418 135.256 133.787 135.309 134.232 135.309C134.549 135.309 134.83 135.297 135.076 135.273C135.334 135.238 135.551 135.203 135.727 135.168L135.744 138.895C135.311 139.035 134.842 139.146 134.338 139.229C133.834 139.311 133.277 139.352 132.668 139.352C131.555 139.352 130.582 139.17 129.75 138.807C128.93 138.432 128.297 137.834 127.852 137.014C127.406 136.193 127.184 135.115 127.184 133.779V115.287ZM143.461 124.129V139H138.398V119.98H143.162L143.461 124.129ZM149.191 119.857L149.104 124.551C148.857 124.516 148.559 124.486 148.207 124.463C147.867 124.428 147.557 124.41 147.275 124.41C146.561 124.41 145.939 124.504 145.412 124.691C144.896 124.867 144.463 125.131 144.111 125.482C143.771 125.834 143.514 126.262 143.338 126.766C143.174 127.27 143.08 127.844 143.057 128.488L142.037 128.172C142.037 126.941 142.16 125.811 142.406 124.779C142.652 123.736 143.01 122.828 143.479 122.055C143.959 121.281 144.545 120.684 145.236 120.262C145.928 119.84 146.719 119.629 147.609 119.629C147.891 119.629 148.178 119.652 148.471 119.699C148.764 119.734 149.004 119.787 149.191 119.857ZM156.926 119.98V139H151.846V119.98H156.926ZM151.529 115.023C151.529 114.285 151.787 113.676 152.303 113.195C152.818 112.715 153.51 112.475 154.377 112.475C155.232 112.475 155.918 112.715 156.434 113.195C156.961 113.676 157.225 114.285 157.225 115.023C157.225 115.762 156.961 116.371 156.434 116.852C155.918 117.332 155.232 117.572 154.377 117.572C153.51 117.572 152.818 117.332 152.303 116.852C151.787 116.371 151.529 115.762 151.529 115.023ZM168.967 135.396C169.588 135.396 170.139 135.279 170.619 135.045C171.1 134.799 171.475 134.459 171.744 134.025C172.025 133.58 172.172 133.059 172.184 132.461H176.947C176.936 133.797 176.578 134.986 175.875 136.029C175.172 137.061 174.229 137.875 173.045 138.473C171.861 139.059 170.537 139.352 169.072 139.352C167.596 139.352 166.307 139.105 165.205 138.613C164.115 138.121 163.207 137.441 162.48 136.574C161.754 135.695 161.209 134.676 160.846 133.516C160.482 132.344 160.301 131.09 160.301 129.754V129.244C160.301 127.896 160.482 126.643 160.846 125.482C161.209 124.311 161.754 123.291 162.48 122.424C163.207 121.545 164.115 120.859 165.205 120.367C166.295 119.875 167.572 119.629 169.037 119.629C170.596 119.629 171.961 119.928 173.133 120.525C174.316 121.123 175.242 121.979 175.91 123.092C176.59 124.193 176.936 125.5 176.947 127.012H172.184C172.172 126.379 172.037 125.805 171.779 125.289C171.533 124.773 171.17 124.363 170.689 124.059C170.221 123.742 169.641 123.584 168.949 123.584C168.211 123.584 167.607 123.742 167.139 124.059C166.67 124.363 166.307 124.785 166.049 125.324C165.791 125.852 165.609 126.455 165.504 127.135C165.41 127.803 165.363 128.506 165.363 129.244V129.754C165.363 130.492 165.41 131.201 165.504 131.881C165.598 132.561 165.773 133.164 166.031 133.691C166.301 134.219 166.67 134.635 167.139 134.939C167.607 135.244 168.217 135.396 168.967 135.396ZM190.166 133.744C190.166 133.381 190.061 133.053 189.85 132.76C189.639 132.467 189.246 132.197 188.672 131.951C188.109 131.693 187.295 131.459 186.229 131.248C185.268 131.037 184.371 130.773 183.539 130.457C182.719 130.129 182.004 129.736 181.395 129.279C180.797 128.822 180.328 128.283 179.988 127.662C179.648 127.029 179.479 126.309 179.479 125.5C179.479 124.703 179.648 123.953 179.988 123.25C180.34 122.547 180.838 121.926 181.482 121.387C182.139 120.836 182.936 120.408 183.873 120.104C184.822 119.787 185.889 119.629 187.072 119.629C188.725 119.629 190.143 119.893 191.326 120.42C192.521 120.947 193.436 121.674 194.068 122.6C194.713 123.514 195.035 124.557 195.035 125.729H189.973C189.973 125.236 189.867 124.797 189.656 124.41C189.457 124.012 189.141 123.701 188.707 123.479C188.285 123.244 187.734 123.127 187.055 123.127C186.492 123.127 186.006 123.227 185.596 123.426C185.186 123.613 184.869 123.871 184.646 124.199C184.436 124.516 184.33 124.867 184.33 125.254C184.33 125.547 184.389 125.811 184.506 126.045C184.635 126.268 184.84 126.473 185.121 126.66C185.402 126.848 185.766 127.023 186.211 127.188C186.668 127.34 187.23 127.48 187.898 127.609C189.27 127.891 190.494 128.26 191.572 128.717C192.65 129.162 193.506 129.771 194.139 130.545C194.771 131.307 195.088 132.309 195.088 133.551C195.088 134.395 194.9 135.168 194.525 135.871C194.15 136.574 193.611 137.189 192.908 137.717C192.205 138.232 191.361 138.637 190.377 138.93C189.404 139.211 188.309 139.352 187.09 139.352C185.32 139.352 183.82 139.035 182.59 138.402C181.371 137.77 180.445 136.967 179.812 135.994C179.191 135.01 178.881 134.002 178.881 132.971H183.68C183.703 133.662 183.879 134.219 184.207 134.641C184.547 135.062 184.975 135.367 185.49 135.555C186.018 135.742 186.586 135.836 187.195 135.836C187.852 135.836 188.396 135.748 188.83 135.572C189.264 135.385 189.592 135.139 189.814 134.834C190.049 134.518 190.166 134.154 190.166 133.744ZM198.621 136.557C198.621 135.807 198.879 135.18 199.395 134.676C199.922 134.172 200.619 133.92 201.486 133.92C202.354 133.92 203.045 134.172 203.561 134.676C204.088 135.18 204.352 135.807 204.352 136.557C204.352 137.307 204.088 137.934 203.561 138.438C203.045 138.941 202.354 139.193 201.486 139.193C200.619 139.193 199.922 138.941 199.395 138.438C198.879 137.934 198.621 137.307 198.621 136.557ZM214.16 119.98V139H209.08V119.98H214.16ZM208.764 115.023C208.764 114.285 209.021 113.676 209.537 113.195C210.053 112.715 210.744 112.475 211.611 112.475C212.467 112.475 213.152 112.715 213.668 113.195C214.195 113.676 214.459 114.285 214.459 115.023C214.459 115.762 214.195 116.371 213.668 116.852C213.152 117.332 212.467 117.572 211.611 117.572C210.744 117.572 210.053 117.332 209.537 116.852C209.021 116.371 208.764 115.762 208.764 115.023ZM217.535 129.684V129.314C217.535 127.92 217.734 126.637 218.133 125.465C218.531 124.281 219.111 123.256 219.873 122.389C220.635 121.521 221.572 120.848 222.686 120.367C223.799 119.875 225.076 119.629 226.518 119.629C227.959 119.629 229.242 119.875 230.367 120.367C231.492 120.848 232.436 121.521 233.197 122.389C233.971 123.256 234.557 124.281 234.955 125.465C235.354 126.637 235.553 127.92 235.553 129.314V129.684C235.553 131.066 235.354 132.35 234.955 133.533C234.557 134.705 233.971 135.73 233.197 136.609C232.436 137.477 231.498 138.15 230.385 138.631C229.271 139.111 227.994 139.352 226.553 139.352C225.111 139.352 223.828 139.111 222.703 138.631C221.59 138.15 220.646 137.477 219.873 136.609C219.111 135.73 218.531 134.705 218.133 133.533C217.734 132.35 217.535 131.066 217.535 129.684ZM222.598 129.314V129.684C222.598 130.48 222.668 131.225 222.809 131.916C222.949 132.607 223.172 133.217 223.477 133.744C223.793 134.26 224.203 134.664 224.707 134.957C225.211 135.25 225.826 135.396 226.553 135.396C227.256 135.396 227.859 135.25 228.363 134.957C228.867 134.664 229.271 134.26 229.576 133.744C229.881 133.217 230.104 132.607 230.244 131.916C230.396 131.225 230.473 130.48 230.473 129.684V129.314C230.473 128.541 230.396 127.814 230.244 127.135C230.104 126.443 229.875 125.834 229.559 125.307C229.254 124.768 228.85 124.346 228.346 124.041C227.842 123.736 227.232 123.584 226.518 123.584C225.803 123.584 225.193 123.736 224.689 124.041C224.197 124.346 223.793 124.768 223.477 125.307C223.172 125.834 222.949 126.443 222.809 127.135C222.668 127.814 222.598 128.541 222.598 129.314Z" fill="white"/>
<path d="M164 27.4267C164 21.902 162.338 16.5059 159.23 11.9453C156.122 7.38476 151.713 3.87234 146.582 1.86817C141.451 -0.136023 135.836 -0.538521 130.473 0.713361C125.11 1.96524 120.249 4.81316 116.526 8.88405H82V82H154.898V47.8293C157.759 45.2616 160.049 42.1174 161.617 38.6018C163.186 35.0862 163.998 31.2785 164 27.4267ZM149.974 27.4267C149.979 30.0741 149.202 32.6637 147.74 34.8677C146.278 37.0714 144.197 38.7908 141.761 39.8076C139.325 40.8247 136.643 41.0937 134.054 40.5804C131.466 40.0674 129.087 38.7952 127.22 36.9252C125.352 35.0551 124.079 32.6712 123.563 30.0749C123.046 27.4789 123.308 24.7872 124.317 22.3408C125.325 19.8944 127.034 17.8031 129.228 16.3317C131.421 14.8603 134.001 14.0749 136.639 14.0749C140.171 14.0749 143.558 15.4807 146.058 17.9839C148.558 20.487 149.966 23.8831 149.974 27.4267ZM140.872 67.9264H96.0263V22.9576H109.693C109.429 24.433 109.29 25.9281 109.278 27.4267C109.285 34.7056 112.17 41.6841 117.3 46.8311C122.43 51.9778 129.385 54.8727 136.639 54.8799C138.057 54.8724 139.473 54.7517 140.872 54.5191V67.9264Z" fill="#00EFFE"/>
</svg>
