<svg width="199" height="32" viewBox="0 0 199 32" fill="none" xmlns="http://www.w3.org/2000/svg">
<path d="M58.75 22.082V28.8438C58.4844 29.1641 58.0742 29.5117 57.5195 29.8867C56.9648 30.2539 56.25 30.5703 55.375 30.8359C54.5 31.1016 53.4414 31.2344 52.1992 31.2344C51.0977 31.2344 50.0938 31.0547 49.1875 30.6953C48.2812 30.3281 47.5 29.793 46.8438 29.0898C46.1953 28.3867 45.6953 27.5273 45.3438 26.5117C44.9922 25.4883 44.8164 24.3203 44.8164 23.0078V21.9414C44.8164 20.6289 44.9844 19.4609 45.3203 18.4375C45.6641 17.4141 46.1523 16.5508 46.7852 15.8477C47.418 15.1445 48.1719 14.6094 49.0469 14.2422C49.9219 13.875 50.8945 13.6914 51.9648 13.6914C53.4492 13.6914 54.668 13.9336 55.6211 14.418C56.5742 14.8945 57.3008 15.5586 57.8008 16.4102C58.3086 17.2539 58.6211 18.2227 58.7383 19.3164H55.3281C55.2422 18.7383 55.0781 18.2344 54.8359 17.8047C54.5938 17.375 54.2461 17.0391 53.793 16.7969C53.3477 16.5547 52.7695 16.4336 52.0586 16.4336C51.4727 16.4336 50.9492 16.5547 50.4883 16.7969C50.0352 17.0312 49.6523 17.3789 49.3398 17.8398C49.0273 18.3008 48.7891 18.8711 48.625 19.5508C48.4609 20.2305 48.3789 21.0195 48.3789 21.918V23.0078C48.3789 23.8984 48.4648 24.6875 48.6367 25.375C48.8086 26.0547 49.0625 26.6289 49.3984 27.0977C49.7422 27.5586 50.1641 27.9062 50.6641 28.1406C51.1641 28.375 51.7461 28.4922 52.4102 28.4922C52.9648 28.4922 53.4258 28.4453 53.793 28.3516C54.168 28.2578 54.4688 28.1445 54.6953 28.0117C54.9297 27.8711 55.1094 27.7383 55.2344 27.6133V24.5898H52.0234V22.082H58.75ZM67.2109 31.2344C66.2266 31.2344 65.3438 31.0781 64.5625 30.7656C63.7812 30.4453 63.1172 30.0039 62.5703 29.4414C62.0312 28.8789 61.6172 28.2266 61.3281 27.4844C61.0391 26.7344 60.8945 25.9375 60.8945 25.0938V24.625C60.8945 23.6641 61.0312 22.7852 61.3047 21.9883C61.5781 21.1914 61.9688 20.5 62.4766 19.9141C62.9922 19.3281 63.6172 18.8789 64.3516 18.5664C65.0859 18.2461 65.9141 18.0859 66.8359 18.0859C67.7344 18.0859 68.5312 18.2344 69.2266 18.5312C69.9219 18.8281 70.5039 19.25 70.9727 19.7969C71.4492 20.3438 71.8086 21 72.0508 21.7656C72.293 22.5234 72.4141 23.3672 72.4141 24.2969V25.7031H62.3359V23.4531H69.0977V23.1953C69.0977 22.7266 69.0117 22.3086 68.8398 21.9414C68.6758 21.5664 68.4258 21.2695 68.0898 21.0508C67.7539 20.832 67.3242 20.7227 66.8008 20.7227C66.3555 20.7227 65.9727 20.8203 65.6523 21.0156C65.332 21.2109 65.0703 21.4844 64.8672 21.8359C64.6719 22.1875 64.5234 22.6016 64.4219 23.0781C64.3281 23.5469 64.2812 24.0625 64.2812 24.625V25.0938C64.2812 25.6016 64.3516 26.0703 64.4922 26.5C64.6406 26.9297 64.8477 27.3008 65.1133 27.6133C65.3867 27.9258 65.7148 28.168 66.0977 28.3398C66.4883 28.5117 66.9297 28.5977 67.4219 28.5977C68.0312 28.5977 68.5977 28.4805 69.1211 28.2461C69.6523 28.0039 70.1094 27.6406 70.4922 27.1562L72.1328 28.9375C71.8672 29.3203 71.5039 29.6875 71.043 30.0391C70.5898 30.3906 70.043 30.6797 69.4023 30.9062C68.7617 31.125 68.0312 31.2344 67.2109 31.2344ZM73.7969 24.7891V24.543C73.7969 23.6133 73.9297 22.7578 74.1953 21.9766C74.4609 21.1875 74.8477 20.5039 75.3555 19.9258C75.8633 19.3477 76.4883 18.8984 77.2305 18.5781C77.9727 18.25 78.8242 18.0859 79.7852 18.0859C80.7461 18.0859 81.6016 18.25 82.3516 18.5781C83.1016 18.8984 83.7305 19.3477 84.2383 19.9258C84.7539 20.5039 85.1445 21.1875 85.4102 21.9766C85.6758 22.7578 85.8086 23.6133 85.8086 24.543V24.7891C85.8086 25.7109 85.6758 26.5664 85.4102 27.3555C85.1445 28.1367 84.7539 28.8203 84.2383 29.4062C83.7305 29.9844 83.1055 30.4336 82.3633 30.7539C81.6211 31.0742 80.7695 31.2344 79.8086 31.2344C78.8477 31.2344 77.9922 31.0742 77.2422 30.7539C76.5 30.4336 75.8711 29.9844 75.3555 29.4062C74.8477 28.8203 74.4609 28.1367 74.1953 27.3555C73.9297 26.5664 73.7969 25.7109 73.7969 24.7891ZM77.1719 24.543V24.7891C77.1719 25.3203 77.2188 25.8164 77.3125 26.2773C77.4062 26.7383 77.5547 27.1445 77.7578 27.4961C77.9688 27.8398 78.2422 28.1094 78.5781 28.3047C78.9141 28.5 79.3242 28.5977 79.8086 28.5977C80.2773 28.5977 80.6797 28.5 81.0156 28.3047C81.3516 28.1094 81.6211 27.8398 81.8242 27.4961C82.0273 27.1445 82.1758 26.7383 82.2695 26.2773C82.3711 25.8164 82.4219 25.3203 82.4219 24.7891V24.543C82.4219 24.0273 82.3711 23.543 82.2695 23.0898C82.1758 22.6289 82.0234 22.2227 81.8125 21.8711C81.6094 21.5117 81.3398 21.2305 81.0039 21.0273C80.668 20.8242 80.2617 20.7227 79.7852 20.7227C79.3086 20.7227 78.9023 20.8242 78.5664 21.0273C78.2383 21.2305 77.9688 21.5117 77.7578 21.8711C77.5547 22.2227 77.4062 22.6289 77.3125 23.0898C77.2188 23.543 77.1719 24.0273 77.1719 24.543ZM91.2578 20.9453V31H87.8711V18.3203H91.0469L91.2578 20.9453ZM90.7891 24.2148H89.8516C89.8516 23.332 89.957 22.5195 90.168 21.7773C90.3867 21.0273 90.7031 20.3789 91.1172 19.832C91.5391 19.2773 92.0586 18.8477 92.6758 18.543C93.293 18.2383 94.0078 18.0859 94.8203 18.0859C95.3828 18.0859 95.8984 18.1719 96.3672 18.3438C96.8359 18.5078 97.2383 18.7695 97.5742 19.1289C97.918 19.4805 98.1836 19.9414 98.3711 20.5117C98.5586 21.0742 98.6523 21.75 98.6523 22.5391V31H95.2773V22.9141C95.2773 22.3359 95.1992 21.8906 95.043 21.5781C94.8867 21.2656 94.6641 21.0469 94.375 20.9219C94.0938 20.7969 93.7539 20.7344 93.3555 20.7344C92.918 20.7344 92.5352 20.8242 92.207 21.0039C91.8867 21.1836 91.6211 21.4336 91.4102 21.7539C91.1992 22.0664 91.043 22.4336 90.9414 22.8555C90.8398 23.2773 90.7891 23.7305 90.7891 24.2148ZM98.3359 23.8281L97.1289 23.9805C97.1289 23.1523 97.2305 22.3828 97.4336 21.6719C97.6445 20.9609 97.9531 20.3359 98.3594 19.7969C98.7734 19.2578 99.2852 18.8398 99.8945 18.543C100.504 18.2383 101.207 18.0859 102.004 18.0859C102.613 18.0859 103.168 18.1758 103.668 18.3555C104.168 18.5273 104.594 18.8047 104.945 19.1875C105.305 19.5625 105.578 20.0547 105.766 20.6641C105.961 21.2734 106.059 22.0195 106.059 22.9023V31H102.672V22.9023C102.672 22.3164 102.594 21.8711 102.438 21.5664C102.289 21.2539 102.07 21.0391 101.781 20.9219C101.5 20.7969 101.164 20.7344 100.773 20.7344C100.367 20.7344 100.012 20.8164 99.707 20.9805C99.4023 21.1367 99.1484 21.3555 98.9453 21.6367C98.7422 21.918 98.5898 22.2461 98.4883 22.6211C98.3867 22.9883 98.3359 23.3906 98.3359 23.8281ZM114.508 31.2344C113.523 31.2344 112.641 31.0781 111.859 30.7656C111.078 30.4453 110.414 30.0039 109.867 29.4414C109.328 28.8789 108.914 28.2266 108.625 27.4844C108.336 26.7344 108.191 25.9375 108.191 25.0938V24.625C108.191 23.6641 108.328 22.7852 108.602 21.9883C108.875 21.1914 109.266 20.5 109.773 19.9141C110.289 19.3281 110.914 18.8789 111.648 18.5664C112.383 18.2461 113.211 18.0859 114.133 18.0859C115.031 18.0859 115.828 18.2344 116.523 18.5312C117.219 18.8281 117.801 19.25 118.27 19.7969C118.746 20.3438 119.105 21 119.348 21.7656C119.59 22.5234 119.711 23.3672 119.711 24.2969V25.7031H109.633V23.4531H116.395V23.1953C116.395 22.7266 116.309 22.3086 116.137 21.9414C115.973 21.5664 115.723 21.2695 115.387 21.0508C115.051 20.832 114.621 20.7227 114.098 20.7227C113.652 20.7227 113.27 20.8203 112.949 21.0156C112.629 21.2109 112.367 21.4844 112.164 21.8359C111.969 22.1875 111.82 22.6016 111.719 23.0781C111.625 23.5469 111.578 24.0625 111.578 24.625V25.0938C111.578 25.6016 111.648 26.0703 111.789 26.5C111.938 26.9297 112.145 27.3008 112.41 27.6133C112.684 27.9258 113.012 28.168 113.395 28.3398C113.785 28.5117 114.227 28.5977 114.719 28.5977C115.328 28.5977 115.895 28.4805 116.418 28.2461C116.949 28.0039 117.406 27.6406 117.789 27.1562L119.43 28.9375C119.164 29.3203 118.801 29.6875 118.34 30.0391C117.887 30.3906 117.34 30.6797 116.699 30.9062C116.059 31.125 115.328 31.2344 114.508 31.2344ZM127.844 18.3203V20.7109H120.461V18.3203H127.844ZM122.289 15.1914H125.664V27.1797C125.664 27.5469 125.711 27.8281 125.805 28.0234C125.906 28.2188 126.055 28.3555 126.25 28.4336C126.445 28.5039 126.691 28.5391 126.988 28.5391C127.199 28.5391 127.387 28.5312 127.551 28.5156C127.723 28.4922 127.867 28.4688 127.984 28.4453L127.996 30.9297C127.707 31.0234 127.395 31.0977 127.059 31.1523C126.723 31.207 126.352 31.2344 125.945 31.2344C125.203 31.2344 124.555 31.1133 124 30.8711C123.453 30.6211 123.031 30.2227 122.734 29.6758C122.438 29.1289 122.289 28.4102 122.289 27.5195V15.1914ZM133.141 21.0859V31H129.766V18.3203H132.941L133.141 21.0859ZM136.961 18.2383L136.902 21.3672C136.738 21.3438 136.539 21.3242 136.305 21.3086C136.078 21.2852 135.871 21.2734 135.684 21.2734C135.207 21.2734 134.793 21.3359 134.441 21.4609C134.098 21.5781 133.809 21.7539 133.574 21.9883C133.348 22.2227 133.176 22.5078 133.059 22.8438C132.949 23.1797 132.887 23.5625 132.871 23.9922L132.191 23.7812C132.191 22.9609 132.273 22.207 132.438 21.5195C132.602 20.8242 132.84 20.2188 133.152 19.7031C133.473 19.1875 133.863 18.7891 134.324 18.5078C134.785 18.2266 135.312 18.0859 135.906 18.0859C136.094 18.0859 136.285 18.1016 136.48 18.1328C136.676 18.1562 136.836 18.1914 136.961 18.2383ZM142.117 18.3203V31H138.73V18.3203H142.117ZM138.52 15.0156C138.52 14.5234 138.691 14.1172 139.035 13.7969C139.379 13.4766 139.84 13.3164 140.418 13.3164C140.988 13.3164 141.445 13.4766 141.789 13.7969C142.141 14.1172 142.316 14.5234 142.316 15.0156C142.316 15.5078 142.141 15.9141 141.789 16.2344C141.445 16.5547 140.988 16.7148 140.418 16.7148C139.84 16.7148 139.379 16.5547 139.035 16.2344C138.691 15.9141 138.52 15.5078 138.52 15.0156ZM150.145 28.5977C150.559 28.5977 150.926 28.5195 151.246 28.3633C151.566 28.1992 151.816 27.9727 151.996 27.6836C152.184 27.3867 152.281 27.0391 152.289 26.6406H155.465C155.457 27.5312 155.219 28.3242 154.75 29.0195C154.281 29.707 153.652 30.25 152.863 30.6484C152.074 31.0391 151.191 31.2344 150.215 31.2344C149.23 31.2344 148.371 31.0703 147.637 30.7422C146.91 30.4141 146.305 29.9609 145.82 29.3828C145.336 28.7969 144.973 28.1172 144.73 27.3438C144.488 26.5625 144.367 25.7266 144.367 24.8359V24.4961C144.367 23.5977 144.488 22.7617 144.73 21.9883C144.973 21.207 145.336 20.5273 145.82 19.9492C146.305 19.3633 146.91 18.9062 147.637 18.5781C148.363 18.25 149.215 18.0859 150.191 18.0859C151.23 18.0859 152.141 18.2852 152.922 18.6836C153.711 19.082 154.328 19.6523 154.773 20.3945C155.227 21.1289 155.457 22 155.465 23.0078H152.289C152.281 22.5859 152.191 22.2031 152.02 21.8594C151.855 21.5156 151.613 21.2422 151.293 21.0391C150.98 20.8281 150.594 20.7227 150.133 20.7227C149.641 20.7227 149.238 20.8281 148.926 21.0391C148.613 21.2422 148.371 21.5234 148.199 21.8828C148.027 22.2344 147.906 22.6367 147.836 23.0898C147.773 23.5352 147.742 24.0039 147.742 24.4961V24.8359C147.742 25.3281 147.773 25.8008 147.836 26.2539C147.898 26.707 148.016 27.1094 148.188 27.4609C148.367 27.8125 148.613 28.0898 148.926 28.293C149.238 28.4961 149.645 28.5977 150.145 28.5977ZM164.277 27.4961C164.277 27.2539 164.207 27.0352 164.066 26.8398C163.926 26.6445 163.664 26.4648 163.281 26.3008C162.906 26.1289 162.363 25.9727 161.652 25.832C161.012 25.6914 160.414 25.5156 159.859 25.3047C159.312 25.0859 158.836 24.8242 158.43 24.5195C158.031 24.2148 157.719 23.8555 157.492 23.4414C157.266 23.0195 157.152 22.5391 157.152 22C157.152 21.4688 157.266 20.9688 157.492 20.5C157.727 20.0312 158.059 19.6172 158.488 19.2578C158.926 18.8906 159.457 18.6055 160.082 18.4023C160.715 18.1914 161.426 18.0859 162.215 18.0859C163.316 18.0859 164.262 18.2617 165.051 18.6133C165.848 18.9648 166.457 19.4492 166.879 20.0664C167.309 20.6758 167.523 21.3711 167.523 22.1523H164.148C164.148 21.8242 164.078 21.5312 163.938 21.2734C163.805 21.0078 163.594 20.8008 163.305 20.6523C163.023 20.4961 162.656 20.418 162.203 20.418C161.828 20.418 161.504 20.4844 161.23 20.6172C160.957 20.7422 160.746 20.9141 160.598 21.1328C160.457 21.3438 160.387 21.5781 160.387 21.8359C160.387 22.0312 160.426 22.207 160.504 22.3633C160.59 22.5117 160.727 22.6484 160.914 22.7734C161.102 22.8984 161.344 23.0156 161.641 23.125C161.945 23.2266 162.32 23.3203 162.766 23.4062C163.68 23.5938 164.496 23.8398 165.215 24.1445C165.934 24.4414 166.504 24.8477 166.926 25.3633C167.348 25.8711 167.559 26.5391 167.559 27.3672C167.559 27.9297 167.434 28.4453 167.184 28.9141C166.934 29.3828 166.574 29.793 166.105 30.1445C165.637 30.4883 165.074 30.7578 164.418 30.9531C163.77 31.1406 163.039 31.2344 162.227 31.2344C161.047 31.2344 160.047 31.0234 159.227 30.6016C158.414 30.1797 157.797 29.6445 157.375 28.9961C156.961 28.3398 156.754 27.668 156.754 26.9805H159.953C159.969 27.4414 160.086 27.8125 160.305 28.0938C160.531 28.375 160.816 28.5781 161.16 28.7031C161.512 28.8281 161.891 28.8906 162.297 28.8906C162.734 28.8906 163.098 28.832 163.387 28.7148C163.676 28.5898 163.895 28.4258 164.043 28.2227C164.199 28.0117 164.277 27.7695 164.277 27.4961ZM169.914 29.3711C169.914 28.8711 170.086 28.4531 170.43 28.1172C170.781 27.7812 171.246 27.6133 171.824 27.6133C172.402 27.6133 172.863 27.7812 173.207 28.1172C173.559 28.4531 173.734 28.8711 173.734 29.3711C173.734 29.8711 173.559 30.2891 173.207 30.625C172.863 30.9609 172.402 31.1289 171.824 31.1289C171.246 31.1289 170.781 30.9609 170.43 30.625C170.086 30.2891 169.914 29.8711 169.914 29.3711ZM180.273 18.3203V31H176.887V18.3203H180.273ZM176.676 15.0156C176.676 14.5234 176.848 14.1172 177.191 13.7969C177.535 13.4766 177.996 13.3164 178.574 13.3164C179.145 13.3164 179.602 13.4766 179.945 13.7969C180.297 14.1172 180.473 14.5234 180.473 15.0156C180.473 15.5078 180.297 15.9141 179.945 16.2344C179.602 16.5547 179.145 16.7148 178.574 16.7148C177.996 16.7148 177.535 16.5547 177.191 16.2344C176.848 15.9141 176.676 15.5078 176.676 15.0156ZM182.523 24.7891V24.543C182.523 23.6133 182.656 22.7578 182.922 21.9766C183.188 21.1875 183.574 20.5039 184.082 19.9258C184.59 19.3477 185.215 18.8984 185.957 18.5781C186.699 18.25 187.551 18.0859 188.512 18.0859C189.473 18.0859 190.328 18.25 191.078 18.5781C191.828 18.8984 192.457 19.3477 192.965 19.9258C193.48 20.5039 193.871 21.1875 194.137 21.9766C194.402 22.7578 194.535 23.6133 194.535 24.543V24.7891C194.535 25.7109 194.402 26.5664 194.137 27.3555C193.871 28.1367 193.48 28.8203 192.965 29.4062C192.457 29.9844 191.832 30.4336 191.09 30.7539C190.348 31.0742 189.496 31.2344 188.535 31.2344C187.574 31.2344 186.719 31.0742 185.969 30.7539C185.227 30.4336 184.598 29.9844 184.082 29.4062C183.574 28.8203 183.188 28.1367 182.922 27.3555C182.656 26.5664 182.523 25.7109 182.523 24.7891ZM185.898 24.543V24.7891C185.898 25.3203 185.945 25.8164 186.039 26.2773C186.133 26.7383 186.281 27.1445 186.484 27.4961C186.695 27.8398 186.969 28.1094 187.305 28.3047C187.641 28.5 188.051 28.5977 188.535 28.5977C189.004 28.5977 189.406 28.5 189.742 28.3047C190.078 28.1094 190.348 27.8398 190.551 27.4961C190.754 27.1445 190.902 26.7383 190.996 26.2773C191.098 25.8164 191.148 25.3203 191.148 24.7891V24.543C191.148 24.0273 191.098 23.543 190.996 23.0898C190.902 22.6289 190.75 22.2227 190.539 21.8711C190.336 21.5117 190.066 21.2305 189.73 21.0273C189.395 20.8242 188.988 20.7227 188.512 20.7227C188.035 20.7227 187.629 20.8242 187.293 21.0273C186.965 21.2305 186.695 21.5117 186.484 21.8711C186.281 22.2227 186.133 22.6289 186.039 23.0898C185.945 23.543 185.898 24.0273 185.898 24.543Z" fill="white"/>
<path d="M32 10.7031C32.0001 8.54711 31.3513 6.44132 30.1384 4.66159C28.9256 2.88186 27.2052 1.51116 25.2028 0.729042C23.2004 -0.053082 21.0092 -0.210154 18.9164 0.278385C16.8234 0.766924 14.9264 1.8783 13.4737 3.46695H0V32H28.448V18.6651C29.5646 17.6631 30.4581 16.4361 31.0701 15.0641C31.6822 13.6922 31.999 12.2063 32 10.7031ZM26.5263 10.7031C26.5285 11.7362 26.2251 12.7468 25.6546 13.6069C25.084 14.4669 24.2722 15.1379 23.3215 15.5347C22.3707 15.9316 21.3242 16.0365 20.3139 15.8363C19.3039 15.6361 18.3756 15.1396 17.6467 14.4098C16.9179 13.68 16.4213 12.7497 16.2196 11.7366C16.0179 10.7235 16.1204 9.67305 16.5139 8.71837C16.9074 7.76365 17.5744 6.94756 18.4303 6.37335C19.2864 5.79915 20.2929 5.49265 21.3225 5.49264C22.7008 5.49264 24.0228 6.04126 24.9983 7.0181C25.974 7.99494 26.5235 9.32023 26.5263 10.7031ZM22.9744 26.5079H5.47369V8.95907H10.807C10.704 9.53483 10.6498 10.1183 10.6451 10.7031C10.648 13.5436 11.7738 16.267 13.7756 18.2755C15.7774 20.284 18.4915 21.4137 21.3225 21.4166C21.8761 21.4136 22.4284 21.3665 22.9744 21.2757V26.5079Z" fill="#00EFFE"/>
</svg>
