<svg width="152" height="66" viewBox="0 0 152 66" fill="none" xmlns="http://www.w3.org/2000/svg">
<path d="M30.4375 58.3115V63.3828C30.2383 63.623 29.9307 63.8838 29.5146 64.165C29.0986 64.4404 28.5625 64.6777 27.9062 64.877C27.25 65.0762 26.4561 65.1758 25.5244 65.1758C24.6982 65.1758 23.9453 65.041 23.2656 64.7715C22.5859 64.4961 22 64.0947 21.5078 63.5674C21.0215 63.04 20.6465 62.3955 20.3828 61.6338C20.1191 60.8662 19.9873 59.9902 19.9873 59.0059V58.2061C19.9873 57.2217 20.1133 56.3457 20.3652 55.5781C20.623 54.8105 20.9893 54.1631 21.4639 53.6357C21.9385 53.1084 22.5039 52.707 23.1602 52.4316C23.8164 52.1562 24.5459 52.0186 25.3486 52.0186C26.4619 52.0186 27.376 52.2002 28.0908 52.5635C28.8057 52.9209 29.3506 53.4189 29.7256 54.0576C30.1064 54.6904 30.3408 55.417 30.4287 56.2373H27.8711C27.8066 55.8037 27.6836 55.4258 27.502 55.1035C27.3203 54.7812 27.0596 54.5293 26.7197 54.3477C26.3857 54.166 25.9521 54.0752 25.4189 54.0752C24.9795 54.0752 24.5869 54.166 24.2412 54.3477C23.9014 54.5234 23.6143 54.7842 23.3799 55.1299C23.1455 55.4756 22.9668 55.9033 22.8438 56.4131C22.7207 56.9229 22.6592 57.5146 22.6592 58.1885V59.0059C22.6592 59.6738 22.7236 60.2656 22.8525 60.7812C22.9814 61.291 23.1719 61.7217 23.4238 62.0732C23.6816 62.4189 23.998 62.6797 24.373 62.8555C24.748 63.0312 25.1846 63.1191 25.6826 63.1191C26.0986 63.1191 26.4443 63.084 26.7197 63.0137C27.001 62.9434 27.2266 62.8584 27.3965 62.7588C27.5723 62.6533 27.707 62.5537 27.8008 62.46V60.1924H25.3926V58.3115H30.4375ZM36.7832 65.1758C36.0449 65.1758 35.3828 65.0586 34.7969 64.8242C34.2109 64.584 33.7129 64.2529 33.3027 63.8311C32.8984 63.4092 32.5879 62.9199 32.3711 62.3633C32.1543 61.8008 32.0459 61.2031 32.0459 60.5703V60.2188C32.0459 59.498 32.1484 58.8389 32.3535 58.2412C32.5586 57.6436 32.8516 57.125 33.2324 56.6855C33.6191 56.2461 34.0879 55.9092 34.6387 55.6748C35.1895 55.4346 35.8105 55.3145 36.502 55.3145C37.1758 55.3145 37.7734 55.4258 38.2949 55.6484C38.8164 55.8711 39.2529 56.1875 39.6045 56.5977C39.9619 57.0078 40.2314 57.5 40.4131 58.0742C40.5947 58.6426 40.6855 59.2754 40.6855 59.9727V61.0273H33.127V59.3398H38.1982V59.1465C38.1982 58.7949 38.1338 58.4814 38.0049 58.2061C37.8818 57.9248 37.6943 57.7021 37.4424 57.5381C37.1904 57.374 36.8682 57.292 36.4756 57.292C36.1416 57.292 35.8545 57.3652 35.6143 57.5117C35.374 57.6582 35.1777 57.8633 35.0254 58.127C34.8789 58.3906 34.7676 58.7012 34.6914 59.0586C34.6211 59.4102 34.5859 59.7969 34.5859 60.2188V60.5703C34.5859 60.9512 34.6387 61.3027 34.7441 61.625C34.8555 61.9473 35.0107 62.2256 35.21 62.46C35.415 62.6943 35.6611 62.876 35.9482 63.0049C36.2412 63.1338 36.5723 63.1982 36.9414 63.1982C37.3984 63.1982 37.8232 63.1104 38.2158 62.9346C38.6143 62.7529 38.957 62.4805 39.2441 62.1172L40.4746 63.4531C40.2754 63.7402 40.0029 64.0156 39.6572 64.2793C39.3174 64.543 38.9072 64.7598 38.4268 64.9297C37.9463 65.0938 37.3984 65.1758 36.7832 65.1758ZM41.7227 60.3418V60.1572C41.7227 59.46 41.8223 58.8184 42.0215 58.2324C42.2207 57.6406 42.5107 57.1279 42.8916 56.6943C43.2725 56.2607 43.7412 55.9238 44.2979 55.6836C44.8545 55.4375 45.4932 55.3145 46.2139 55.3145C46.9346 55.3145 47.5762 55.4375 48.1387 55.6836C48.7012 55.9238 49.1729 56.2607 49.5537 56.6943C49.9404 57.1279 50.2334 57.6406 50.4326 58.2324C50.6318 58.8184 50.7314 59.46 50.7314 60.1572V60.3418C50.7314 61.0332 50.6318 61.6748 50.4326 62.2666C50.2334 62.8525 49.9404 63.3652 49.5537 63.8047C49.1729 64.2383 48.7041 64.5752 48.1475 64.8154C47.5908 65.0557 46.9521 65.1758 46.2314 65.1758C45.5107 65.1758 44.8691 65.0557 44.3066 64.8154C43.75 64.5752 43.2783 64.2383 42.8916 63.8047C42.5107 63.3652 42.2207 62.8525 42.0215 62.2666C41.8223 61.6748 41.7227 61.0332 41.7227 60.3418ZM44.2539 60.1572V60.3418C44.2539 60.7402 44.2891 61.1123 44.3594 61.458C44.4297 61.8037 44.541 62.1084 44.6934 62.3721C44.8516 62.6299 45.0566 62.832 45.3086 62.9785C45.5605 63.125 45.8682 63.1982 46.2314 63.1982C46.583 63.1982 46.8848 63.125 47.1367 62.9785C47.3887 62.832 47.5908 62.6299 47.7432 62.3721C47.8955 62.1084 48.0068 61.8037 48.0771 61.458C48.1533 61.1123 48.1914 60.7402 48.1914 60.3418V60.1572C48.1914 59.7705 48.1533 59.4072 48.0771 59.0674C48.0068 58.7217 47.8926 58.417 47.7344 58.1533C47.582 57.8838 47.3799 57.6729 47.1279 57.5205C46.876 57.3682 46.5713 57.292 46.2139 57.292C45.8564 57.292 45.5518 57.3682 45.2998 57.5205C45.0537 57.6729 44.8516 57.8838 44.6934 58.1533C44.541 58.417 44.4297 58.7217 44.3594 59.0674C44.2891 59.4072 44.2539 59.7705 44.2539 60.1572ZM54.8184 57.459V65H52.2783V55.4902H54.6602L54.8184 57.459ZM54.4668 59.9111H53.7637C53.7637 59.249 53.8428 58.6396 54.001 58.083C54.165 57.5205 54.4023 57.0342 54.7129 56.624C55.0293 56.208 55.4189 55.8857 55.8818 55.6572C56.3447 55.4287 56.8809 55.3145 57.4902 55.3145C57.9121 55.3145 58.2988 55.3789 58.6504 55.5078C59.002 55.6309 59.3037 55.8271 59.5557 56.0967C59.8135 56.3604 60.0127 56.7061 60.1533 57.1338C60.2939 57.5557 60.3643 58.0625 60.3643 58.6543V65H57.833V58.9355C57.833 58.502 57.7744 58.168 57.6572 57.9336C57.54 57.6992 57.373 57.5352 57.1562 57.4414C56.9453 57.3477 56.6904 57.3008 56.3916 57.3008C56.0635 57.3008 55.7764 57.3682 55.5303 57.5029C55.29 57.6377 55.0908 57.8252 54.9326 58.0654C54.7744 58.2998 54.6572 58.5752 54.5811 58.8916C54.5049 59.208 54.4668 59.5479 54.4668 59.9111ZM60.127 59.6211L59.2217 59.7354C59.2217 59.1143 59.2979 58.5371 59.4502 58.0039C59.6084 57.4707 59.8398 57.002 60.1445 56.5977C60.4551 56.1934 60.8389 55.8799 61.2959 55.6572C61.7529 55.4287 62.2803 55.3145 62.8779 55.3145C63.335 55.3145 63.751 55.3818 64.126 55.5166C64.501 55.6455 64.8203 55.8535 65.084 56.1406C65.3535 56.4219 65.5586 56.791 65.6992 57.248C65.8457 57.7051 65.9189 58.2646 65.9189 58.9268V65H63.3789V58.9268C63.3789 58.4873 63.3203 58.1533 63.2031 57.9248C63.0918 57.6904 62.9277 57.5293 62.7109 57.4414C62.5 57.3477 62.248 57.3008 61.9551 57.3008C61.6504 57.3008 61.3838 57.3623 61.1553 57.4854C60.9268 57.6025 60.7363 57.7666 60.584 57.9775C60.4316 58.1885 60.3174 58.4346 60.2412 58.7158C60.165 58.9912 60.127 59.293 60.127 59.6211ZM72.2559 65.1758C71.5176 65.1758 70.8555 65.0586 70.2695 64.8242C69.6836 64.584 69.1855 64.2529 68.7754 63.8311C68.3711 63.4092 68.0605 62.9199 67.8438 62.3633C67.627 61.8008 67.5186 61.2031 67.5186 60.5703V60.2188C67.5186 59.498 67.6211 58.8389 67.8262 58.2412C68.0312 57.6436 68.3242 57.125 68.7051 56.6855C69.0918 56.2461 69.5605 55.9092 70.1113 55.6748C70.6621 55.4346 71.2832 55.3145 71.9746 55.3145C72.6484 55.3145 73.2461 55.4258 73.7676 55.6484C74.2891 55.8711 74.7256 56.1875 75.0771 56.5977C75.4346 57.0078 75.7041 57.5 75.8857 58.0742C76.0674 58.6426 76.1582 59.2754 76.1582 59.9727V61.0273H68.5996V59.3398H73.6709V59.1465C73.6709 58.7949 73.6064 58.4814 73.4775 58.2061C73.3545 57.9248 73.167 57.7021 72.915 57.5381C72.6631 57.374 72.3408 57.292 71.9482 57.292C71.6143 57.292 71.3271 57.3652 71.0869 57.5117C70.8467 57.6582 70.6504 57.8633 70.498 58.127C70.3516 58.3906 70.2402 58.7012 70.1641 59.0586C70.0938 59.4102 70.0586 59.7969 70.0586 60.2188V60.5703C70.0586 60.9512 70.1113 61.3027 70.2168 61.625C70.3281 61.9473 70.4834 62.2256 70.6826 62.46C70.8877 62.6943 71.1338 62.876 71.4209 63.0049C71.7139 63.1338 72.0449 63.1982 72.4141 63.1982C72.8711 63.1982 73.2959 63.1104 73.6885 62.9346C74.0869 62.7529 74.4297 62.4805 74.7168 62.1172L75.9473 63.4531C75.748 63.7402 75.4756 64.0156 75.1299 64.2793C74.79 64.543 74.3799 64.7598 73.8994 64.9297C73.4189 65.0938 72.8711 65.1758 72.2559 65.1758ZM82.2578 55.4902V57.2832H76.7207V55.4902H82.2578ZM78.0918 53.1436H80.623V62.1348C80.623 62.4102 80.6582 62.6211 80.7285 62.7676C80.8047 62.9141 80.916 63.0166 81.0625 63.0752C81.209 63.1279 81.3936 63.1543 81.6162 63.1543C81.7744 63.1543 81.915 63.1484 82.0381 63.1367C82.167 63.1191 82.2754 63.1016 82.3633 63.084L82.3721 64.9473C82.1553 65.0176 81.9209 65.0732 81.6689 65.1143C81.417 65.1553 81.1387 65.1758 80.834 65.1758C80.2773 65.1758 79.791 65.085 79.375 64.9033C78.9648 64.7158 78.6484 64.417 78.4258 64.0068C78.2031 63.5967 78.0918 63.0576 78.0918 62.3896V53.1436ZM86.2305 57.5645V65H83.6992V55.4902H86.0811L86.2305 57.5645ZM89.0957 55.4287L89.0518 57.7754C88.9287 57.7578 88.7793 57.7432 88.6035 57.7314C88.4336 57.7139 88.2783 57.7051 88.1377 57.7051C87.7803 57.7051 87.4697 57.752 87.2061 57.8457C86.9482 57.9336 86.7314 58.0654 86.5557 58.2412C86.3857 58.417 86.2568 58.6309 86.1689 58.8828C86.0869 59.1348 86.04 59.4219 86.0283 59.7441L85.5186 59.5859C85.5186 58.9707 85.5801 58.4053 85.7031 57.8896C85.8262 57.3682 86.0049 56.9141 86.2393 56.5273C86.4795 56.1406 86.7725 55.8418 87.1182 55.6309C87.4639 55.4199 87.8594 55.3145 88.3047 55.3145C88.4453 55.3145 88.5889 55.3262 88.7354 55.3496C88.8818 55.3672 89.002 55.3936 89.0957 55.4287ZM92.9629 55.4902V65H90.4229V55.4902H92.9629ZM90.2646 53.0117C90.2646 52.6426 90.3936 52.3379 90.6514 52.0977C90.9092 51.8574 91.2549 51.7373 91.6885 51.7373C92.1162 51.7373 92.459 51.8574 92.7168 52.0977C92.9805 52.3379 93.1123 52.6426 93.1123 53.0117C93.1123 53.3809 92.9805 53.6855 92.7168 53.9258C92.459 54.166 92.1162 54.2861 91.6885 54.2861C91.2549 54.2861 90.9092 54.166 90.6514 53.9258C90.3936 53.6855 90.2646 53.3809 90.2646 53.0117ZM98.9834 63.1982C99.2939 63.1982 99.5693 63.1396 99.8096 63.0225C100.05 62.8994 100.237 62.7295 100.372 62.5127C100.513 62.29 100.586 62.0293 100.592 61.7305H102.974C102.968 62.3984 102.789 62.9932 102.438 63.5146C102.086 64.0303 101.614 64.4375 101.022 64.7363C100.431 65.0293 99.7686 65.1758 99.0361 65.1758C98.2979 65.1758 97.6533 65.0527 97.1025 64.8066C96.5576 64.5605 96.1035 64.2207 95.7402 63.7871C95.377 63.3477 95.1045 62.8379 94.9229 62.2578C94.7412 61.6719 94.6504 61.0449 94.6504 60.377V60.1221C94.6504 59.4482 94.7412 58.8213 94.9229 58.2412C95.1045 57.6553 95.377 57.1455 95.7402 56.7119C96.1035 56.2725 96.5576 55.9297 97.1025 55.6836C97.6475 55.4375 98.2861 55.3145 99.0186 55.3145C99.7979 55.3145 100.48 55.4639 101.066 55.7627C101.658 56.0615 102.121 56.4893 102.455 57.0459C102.795 57.5967 102.968 58.25 102.974 59.0059H100.592C100.586 58.6895 100.519 58.4023 100.39 58.1445C100.267 57.8867 100.085 57.6816 99.8447 57.5293C99.6104 57.3711 99.3203 57.292 98.9746 57.292C98.6055 57.292 98.3037 57.3711 98.0693 57.5293C97.835 57.6816 97.6533 57.8926 97.5244 58.1621C97.3955 58.4258 97.3047 58.7275 97.252 59.0674C97.2051 59.4014 97.1816 59.7529 97.1816 60.1221V60.377C97.1816 60.7461 97.2051 61.1006 97.252 61.4404C97.2988 61.7803 97.3867 62.082 97.5156 62.3457C97.6504 62.6094 97.835 62.8174 98.0693 62.9697C98.3037 63.1221 98.6084 63.1982 98.9834 63.1982ZM109.583 62.3721C109.583 62.1904 109.53 62.0264 109.425 61.8799C109.319 61.7334 109.123 61.5986 108.836 61.4756C108.555 61.3467 108.147 61.2295 107.614 61.124C107.134 61.0186 106.686 60.8867 106.27 60.7285C105.859 60.5645 105.502 60.3682 105.197 60.1396C104.898 59.9111 104.664 59.6416 104.494 59.3311C104.324 59.0146 104.239 58.6543 104.239 58.25C104.239 57.8516 104.324 57.4766 104.494 57.125C104.67 56.7734 104.919 56.4629 105.241 56.1934C105.569 55.918 105.968 55.7041 106.437 55.5518C106.911 55.3936 107.444 55.3145 108.036 55.3145C108.862 55.3145 109.571 55.4463 110.163 55.71C110.761 55.9736 111.218 56.3369 111.534 56.7998C111.856 57.2568 112.018 57.7783 112.018 58.3643H109.486C109.486 58.1182 109.434 57.8984 109.328 57.7051C109.229 57.5059 109.07 57.3506 108.854 57.2393C108.643 57.1221 108.367 57.0635 108.027 57.0635C107.746 57.0635 107.503 57.1133 107.298 57.2129C107.093 57.3066 106.935 57.4355 106.823 57.5996C106.718 57.7578 106.665 57.9336 106.665 58.127C106.665 58.2734 106.694 58.4053 106.753 58.5225C106.817 58.6338 106.92 58.7363 107.061 58.8301C107.201 58.9238 107.383 59.0117 107.605 59.0938C107.834 59.1699 108.115 59.2402 108.449 59.3047C109.135 59.4453 109.747 59.6299 110.286 59.8584C110.825 60.0811 111.253 60.3857 111.569 60.7725C111.886 61.1533 112.044 61.6543 112.044 62.2754C112.044 62.6973 111.95 63.084 111.763 63.4355C111.575 63.7871 111.306 64.0947 110.954 64.3584C110.603 64.6162 110.181 64.8184 109.688 64.9648C109.202 65.1055 108.654 65.1758 108.045 65.1758C107.16 65.1758 106.41 65.0176 105.795 64.7012C105.186 64.3848 104.723 63.9834 104.406 63.4971C104.096 63.0049 103.94 62.501 103.94 61.9854H106.34C106.352 62.3311 106.439 62.6094 106.604 62.8203C106.773 63.0312 106.987 63.1836 107.245 63.2773C107.509 63.3711 107.793 63.418 108.098 63.418C108.426 63.418 108.698 63.374 108.915 63.2861C109.132 63.1924 109.296 63.0693 109.407 62.917C109.524 62.7588 109.583 62.5771 109.583 62.3721ZM113.811 63.7783C113.811 63.4033 113.939 63.0898 114.197 62.8379C114.461 62.5859 114.81 62.46 115.243 62.46C115.677 62.46 116.022 62.5859 116.28 62.8379C116.544 63.0898 116.676 63.4033 116.676 63.7783C116.676 64.1533 116.544 64.4668 116.28 64.7188C116.022 64.9707 115.677 65.0967 115.243 65.0967C114.81 65.0967 114.461 64.9707 114.197 64.7188C113.939 64.4668 113.811 64.1533 113.811 63.7783ZM121.58 55.4902V65H119.04V55.4902H121.58ZM118.882 53.0117C118.882 52.6426 119.011 52.3379 119.269 52.0977C119.526 51.8574 119.872 51.7373 120.306 51.7373C120.733 51.7373 121.076 51.8574 121.334 52.0977C121.598 52.3379 121.729 52.6426 121.729 53.0117C121.729 53.3809 121.598 53.6855 121.334 53.9258C121.076 54.166 120.733 54.2861 120.306 54.2861C119.872 54.2861 119.526 54.166 119.269 53.9258C119.011 53.6855 118.882 53.3809 118.882 53.0117ZM123.268 60.3418V60.1572C123.268 59.46 123.367 58.8184 123.566 58.2324C123.766 57.6406 124.056 57.1279 124.437 56.6943C124.817 56.2607 125.286 55.9238 125.843 55.6836C126.399 55.4375 127.038 55.3145 127.759 55.3145C128.479 55.3145 129.121 55.4375 129.684 55.6836C130.246 55.9238 130.718 56.2607 131.099 56.6943C131.485 57.1279 131.778 57.6406 131.978 58.2324C132.177 58.8184 132.276 59.46 132.276 60.1572V60.3418C132.276 61.0332 132.177 61.6748 131.978 62.2666C131.778 62.8525 131.485 63.3652 131.099 63.8047C130.718 64.2383 130.249 64.5752 129.692 64.8154C129.136 65.0557 128.497 65.1758 127.776 65.1758C127.056 65.1758 126.414 65.0557 125.852 64.8154C125.295 64.5752 124.823 64.2383 124.437 63.8047C124.056 63.3652 123.766 62.8525 123.566 62.2666C123.367 61.6748 123.268 61.0332 123.268 60.3418ZM125.799 60.1572V60.3418C125.799 60.7402 125.834 61.1123 125.904 61.458C125.975 61.8037 126.086 62.1084 126.238 62.3721C126.396 62.6299 126.602 62.832 126.854 62.9785C127.105 63.125 127.413 63.1982 127.776 63.1982C128.128 63.1982 128.43 63.125 128.682 62.9785C128.934 62.832 129.136 62.6299 129.288 62.3721C129.44 62.1084 129.552 61.8037 129.622 61.458C129.698 61.1123 129.736 60.7402 129.736 60.3418V60.1572C129.736 59.7705 129.698 59.4072 129.622 59.0674C129.552 58.7217 129.438 58.417 129.279 58.1533C129.127 57.8838 128.925 57.6729 128.673 57.5205C128.421 57.3682 128.116 57.292 127.759 57.292C127.401 57.292 127.097 57.3682 126.845 57.5205C126.599 57.6729 126.396 57.8838 126.238 58.1533C126.086 58.417 125.975 58.7217 125.904 59.0674C125.834 59.4072 125.799 59.7705 125.799 60.1572Z" fill="white"/>
<path d="M96 13.3789C96.0001 10.6839 95.1891 8.05165 93.673 5.82698C92.1569 3.60232 90.0065 1.88894 87.5035 0.911303C85.0005 -0.0663525 82.2615 -0.262693 79.6455 0.347981C77.0293 0.958655 74.658 2.34788 72.8421 4.33368H56V40H91.5601V23.3313C92.9557 22.0788 94.0726 20.5451 94.8377 18.8301C95.6027 17.1152 95.9988 15.2578 96 13.3789ZM89.1579 13.3789C89.1606 14.6703 88.7814 15.9335 88.0683 17.0086C87.3551 18.0836 86.3402 18.9223 85.1518 19.4183C83.9634 19.9145 82.6552 20.0457 81.3924 19.7953C80.1298 19.5451 78.9695 18.9245 78.0584 18.0123C77.1474 17.1 76.5266 15.9372 76.2745 14.6707C76.0224 13.4044 76.1505 12.0913 76.6424 10.898C77.1343 9.70457 77.968 8.68445 79.0379 7.96669C80.108 7.24894 81.3661 6.86582 82.6532 6.8658C84.376 6.8658 86.0285 7.55157 87.2479 8.77262C88.4675 9.99367 89.1544 11.6503 89.1579 13.3789ZM84.7179 33.1348H62.8421V11.1988H69.5088C69.38 11.9185 69.3123 12.6478 69.3063 13.3789C69.31 16.9296 70.7173 20.3337 73.2196 22.8444C75.7217 25.355 79.1144 26.7672 82.6532 26.7707C83.3451 26.767 84.0355 26.7081 84.7179 26.5947V33.1348Z" fill="#00EFFE"/>
</svg>
