<svg width="191" height="92" viewBox="0 0 191 92" fill="none" xmlns="http://www.w3.org/2000/svg">
<path d="M187.009 3H64.7688C64.4911 3 64.2259 3.11551 64.0367 3.31885L3.56405 68.3188C2.96899 68.9585 3.42259 70 4.2962 70H138.631C138.947 70 139.245 69.8506 139.433 69.5971L187.811 4.59706C188.302 3.93737 187.831 3 187.009 3Z" stroke="#00EFFE" stroke-width="5"/>
<line x1="66" y1="5" x2="66" y2="70" stroke="#00EFFE" stroke-width="2" stroke-dasharray="2 2"/>
<path d="M78.3789 23V41H75.0039V23H78.3789ZM77.8984 34.2148H76.9727C76.9805 33.332 77.0977 32.5195 77.3242 31.7773C77.5508 31.0273 77.875 30.3789 78.2969 29.832C78.7188 29.2773 79.2227 28.8477 79.8086 28.543C80.4023 28.2383 81.0586 28.0859 81.7773 28.0859C82.4023 28.0859 82.9688 28.1758 83.4766 28.3555C83.9922 28.5273 84.4336 28.8086 84.8008 29.1992C85.1758 29.582 85.4648 30.0859 85.668 30.7109C85.8711 31.3359 85.9727 32.0938 85.9727 32.9844V41H82.5742V32.9609C82.5742 32.3984 82.4922 31.957 82.3281 31.6367C82.1719 31.3086 81.9414 31.0781 81.6367 30.9453C81.3398 30.8047 80.9727 30.7344 80.5352 30.7344C80.0508 30.7344 79.6367 30.8242 79.293 31.0039C78.957 31.1836 78.6875 31.4336 78.4844 31.7539C78.2812 32.0664 78.1328 32.4336 78.0391 32.8555C77.9453 33.2773 77.8984 33.7305 77.8984 34.2148Z" fill="white"/>
<path d="M86.0625 73H89.4375V88.0938L89.0977 91H86.0625V73ZM97.4648 84.5312V84.7773C97.4648 85.7227 97.3633 86.5898 97.1602 87.3789C96.9648 88.168 96.6602 88.8516 96.2461 89.4297C95.832 90 95.3164 90.4453 94.6992 90.7656C94.0898 91.0781 93.3711 91.2344 92.543 91.2344C91.7695 91.2344 91.0977 91.0781 90.5273 90.7656C89.9648 90.4531 89.4922 90.0117 89.1094 89.4414C88.7266 88.8711 88.418 88.2031 88.1836 87.4375C87.9492 86.6719 87.7734 85.8359 87.6562 84.9297V84.3906C87.7734 83.4844 87.9492 82.6484 88.1836 81.8828C88.418 81.1172 88.7266 80.4492 89.1094 79.8789C89.4922 79.3086 89.9648 78.8672 90.5273 78.5547C91.0898 78.2422 91.7539 78.0859 92.5195 78.0859C93.3555 78.0859 94.082 78.2461 94.6992 78.5664C95.3242 78.8789 95.8398 79.3242 96.2461 79.9023C96.6602 80.4727 96.9648 81.1523 97.1602 81.9414C97.3633 82.7227 97.4648 83.5859 97.4648 84.5312ZM94.0898 84.7773V84.5312C94.0898 84.0156 94.0508 83.5312 93.9727 83.0781C93.9023 82.6172 93.7773 82.2148 93.5977 81.8711C93.418 81.5195 93.1719 81.2422 92.8594 81.0391C92.5547 80.8359 92.1602 80.7344 91.6758 80.7344C91.2148 80.7344 90.8242 80.8125 90.5039 80.9688C90.1836 81.125 89.918 81.3438 89.707 81.625C89.5039 81.9062 89.3516 82.2422 89.25 82.6328C89.1484 83.0156 89.0859 83.4375 89.0625 83.8984V85.4336C89.0859 86.0508 89.1875 86.5977 89.3672 87.0742C89.5547 87.543 89.8359 87.9141 90.2109 88.1875C90.5938 88.4531 91.0898 88.5859 91.6992 88.5859C92.1758 88.5859 92.5703 88.4922 92.8828 88.3047C93.1953 88.1172 93.4375 87.8516 93.6094 87.5078C93.7891 87.1641 93.9141 86.7617 93.9844 86.3008C94.0547 85.832 94.0898 85.3242 94.0898 84.7773Z" fill="white"/>
<path d="M17.2344 31.1406V25.4922C17.2344 25.0859 17.168 24.7383 17.0352 24.4492C16.9023 24.1523 16.6953 23.9219 16.4141 23.7578C16.1406 23.5938 15.7852 23.5117 15.3477 23.5117C14.9727 23.5117 14.6484 23.5781 14.375 23.7109C14.1016 23.8359 13.8906 24.0195 13.7422 24.2617C13.5938 24.4961 13.5195 24.7734 13.5195 25.0938H10.1445C10.1445 24.5547 10.2695 24.043 10.5195 23.5586C10.7695 23.0742 11.1328 22.6484 11.6094 22.2812C12.0859 21.9062 12.6523 21.6133 13.3086 21.4023C13.9727 21.1914 14.7148 21.0859 15.5352 21.0859C16.5195 21.0859 17.3945 21.25 18.1602 21.5781C18.9258 21.9062 19.5273 22.3984 19.9648 23.0547C20.4102 23.7109 20.6328 24.5312 20.6328 25.5156V30.9414C20.6328 31.6367 20.6758 32.207 20.7617 32.6523C20.8477 33.0898 20.9727 33.4727 21.1367 33.8008V34H17.7266C17.5625 33.6562 17.4375 33.2266 17.3516 32.7109C17.2734 32.1875 17.2344 31.6641 17.2344 31.1406ZM17.6797 26.2773L17.7031 28.1875H15.8164C15.3711 28.1875 14.9844 28.2383 14.6562 28.3398C14.3281 28.4414 14.0586 28.5859 13.8477 28.7734C13.6367 28.9531 13.4805 29.1641 13.3789 29.4062C13.2852 29.6484 13.2383 29.9141 13.2383 30.2031C13.2383 30.4922 13.3047 30.7539 13.4375 30.9883C13.5703 31.2148 13.7617 31.3945 14.0117 31.5273C14.2617 31.6523 14.5547 31.7148 14.8906 31.7148C15.3984 31.7148 15.8398 31.6133 16.2148 31.4102C16.5898 31.207 16.8789 30.957 17.082 30.6602C17.293 30.3633 17.4023 30.082 17.4102 29.8164L18.3008 31.2461C18.1758 31.5664 18.0039 31.8984 17.7852 32.2422C17.5742 32.5859 17.3047 32.9102 16.9766 33.2148C16.6484 33.5117 16.2539 33.7578 15.793 33.9531C15.332 34.1406 14.7852 34.2344 14.1523 34.2344C13.3477 34.2344 12.6172 34.0742 11.9609 33.7539C11.3125 33.4258 10.7969 32.9766 10.4141 32.4062C10.0391 31.8281 9.85156 31.1719 9.85156 30.4375C9.85156 29.7734 9.97656 29.1836 10.2266 28.668C10.4766 28.1523 10.8438 27.7188 11.3281 27.3672C11.8203 27.0078 12.4336 26.7383 13.168 26.5586C13.9023 26.3711 14.7539 26.2773 15.7227 26.2773H17.6797Z" fill="white"/>
</svg>
