<svg width="166" height="106" viewBox="0 0 166 106" fill="none" xmlns="http://www.w3.org/2000/svg">
<mask id="path-1-inside-1_19_708" fill="white">
<rect x="29" width="137" height="80" rx="1"/>
</mask>
<rect x="29" width="137" height="80" rx="1" stroke="#00EFFE" stroke-width="10" mask="url(#path-1-inside-1_19_708)"/>
<path d="M93.0625 87H96.4375V102.094L96.0977 105H93.0625V87ZM104.465 98.5312V98.7773C104.465 99.7227 104.363 100.59 104.16 101.379C103.965 102.168 103.66 102.852 103.246 103.43C102.832 104 102.316 104.445 101.699 104.766C101.09 105.078 100.371 105.234 99.543 105.234C98.7695 105.234 98.0977 105.078 97.5273 104.766C96.9648 104.453 96.4922 104.012 96.1094 103.441C95.7266 102.871 95.418 102.203 95.1836 101.438C94.9492 100.672 94.7734 99.8359 94.6562 98.9297V98.3906C94.7734 97.4844 94.9492 96.6484 95.1836 95.8828C95.418 95.1172 95.7266 94.4492 96.1094 93.8789C96.4922 93.3086 96.9648 92.8672 97.5273 92.5547C98.0898 92.2422 98.7539 92.0859 99.5195 92.0859C100.355 92.0859 101.082 92.2461 101.699 92.5664C102.324 92.8789 102.84 93.3242 103.246 93.9023C103.66 94.4727 103.965 95.1523 104.16 95.9414C104.363 96.7227 104.465 97.5859 104.465 98.5312ZM101.09 98.7773V98.5312C101.09 98.0156 101.051 97.5312 100.973 97.0781C100.902 96.6172 100.777 96.2148 100.598 95.8711C100.418 95.5195 100.172 95.2422 99.8594 95.0391C99.5547 94.8359 99.1602 94.7344 98.6758 94.7344C98.2148 94.7344 97.8242 94.8125 97.5039 94.9688C97.1836 95.125 96.918 95.3438 96.707 95.625C96.5039 95.9062 96.3516 96.2422 96.25 96.6328C96.1484 97.0156 96.0859 97.4375 96.0625 97.8984V99.4336C96.0859 100.051 96.1875 100.598 96.3672 101.074C96.5547 101.543 96.8359 101.914 97.2109 102.188C97.5938 102.453 98.0898 102.586 98.6992 102.586C99.1758 102.586 99.5703 102.492 99.8828 102.305C100.195 102.117 100.438 101.852 100.609 101.508C100.789 101.164 100.914 100.762 100.984 100.301C101.055 99.832 101.09 99.3242 101.09 98.7773Z" fill="white"/>
<path d="M8.23438 45.1406V39.4922C8.23438 39.0859 8.16797 38.7383 8.03516 38.4492C7.90234 38.1523 7.69531 37.9219 7.41406 37.7578C7.14062 37.5938 6.78516 37.5117 6.34766 37.5117C5.97266 37.5117 5.64844 37.5781 5.375 37.7109C5.10156 37.8359 4.89062 38.0195 4.74219 38.2617C4.59375 38.4961 4.51953 38.7734 4.51953 39.0938H1.14453C1.14453 38.5547 1.26953 38.043 1.51953 37.5586C1.76953 37.0742 2.13281 36.6484 2.60938 36.2812C3.08594 35.9062 3.65234 35.6133 4.30859 35.4023C4.97266 35.1914 5.71484 35.0859 6.53516 35.0859C7.51953 35.0859 8.39453 35.25 9.16016 35.5781C9.92578 35.9062 10.5273 36.3984 10.9648 37.0547C11.4102 37.7109 11.6328 38.5312 11.6328 39.5156V44.9414C11.6328 45.6367 11.6758 46.207 11.7617 46.6523C11.8477 47.0898 11.9727 47.4727 12.1367 47.8008V48H8.72656C8.5625 47.6562 8.4375 47.2266 8.35156 46.7109C8.27344 46.1875 8.23438 45.6641 8.23438 45.1406ZM8.67969 40.2773L8.70312 42.1875H6.81641C6.37109 42.1875 5.98438 42.2383 5.65625 42.3398C5.32812 42.4414 5.05859 42.5859 4.84766 42.7734C4.63672 42.9531 4.48047 43.1641 4.37891 43.4062C4.28516 43.6484 4.23828 43.9141 4.23828 44.2031C4.23828 44.4922 4.30469 44.7539 4.4375 44.9883C4.57031 45.2148 4.76172 45.3945 5.01172 45.5273C5.26172 45.6523 5.55469 45.7148 5.89062 45.7148C6.39844 45.7148 6.83984 45.6133 7.21484 45.4102C7.58984 45.207 7.87891 44.957 8.08203 44.6602C8.29297 44.3633 8.40234 44.082 8.41016 43.8164L9.30078 45.2461C9.17578 45.5664 9.00391 45.8984 8.78516 46.2422C8.57422 46.5859 8.30469 46.9102 7.97656 47.2148C7.64844 47.5117 7.25391 47.7578 6.79297 47.9531C6.33203 48.1406 5.78516 48.2344 5.15234 48.2344C4.34766 48.2344 3.61719 48.0742 2.96094 47.7539C2.3125 47.4258 1.79688 46.9766 1.41406 46.4062C1.03906 45.8281 0.851562 45.1719 0.851562 44.4375C0.851562 43.7734 0.976562 43.1836 1.22656 42.668C1.47656 42.1523 1.84375 41.7188 2.32812 41.3672C2.82031 41.0078 3.43359 40.7383 4.16797 40.5586C4.90234 40.3711 5.75391 40.2773 6.72266 40.2773H8.67969Z" fill="white"/>
</svg>
