<svg width="136" height="110" viewBox="0 0 136 110" fill="none" xmlns="http://www.w3.org/2000/svg">
<rect x="28.5" y="2.5" width="105" height="105" stroke="#00EFFE" stroke-width="5"/>
<path d="M8.50391 51.4961C8.50391 51.2539 8.43359 51.0352 8.29297 50.8398C8.15234 50.6445 7.89062 50.4648 7.50781 50.3008C7.13281 50.1289 6.58984 49.9727 5.87891 49.832C5.23828 49.6914 4.64062 49.5156 4.08594 49.3047C3.53906 49.0859 3.0625 48.8242 2.65625 48.5195C2.25781 48.2148 1.94531 47.8555 1.71875 47.4414C1.49219 47.0195 1.37891 46.5391 1.37891 46C1.37891 45.4688 1.49219 44.9688 1.71875 44.5C1.95312 44.0312 2.28516 43.6172 2.71484 43.2578C3.15234 42.8906 3.68359 42.6055 4.30859 42.4023C4.94141 42.1914 5.65234 42.0859 6.44141 42.0859C7.54297 42.0859 8.48828 42.2617 9.27734 42.6133C10.0742 42.9648 10.6836 43.4492 11.1055 44.0664C11.5352 44.6758 11.75 45.3711 11.75 46.1523H8.375C8.375 45.8242 8.30469 45.5312 8.16406 45.2734C8.03125 45.0078 7.82031 44.8008 7.53125 44.6523C7.25 44.4961 6.88281 44.418 6.42969 44.418C6.05469 44.418 5.73047 44.4844 5.45703 44.6172C5.18359 44.7422 4.97266 44.9141 4.82422 45.1328C4.68359 45.3438 4.61328 45.5781 4.61328 45.8359C4.61328 46.0312 4.65234 46.207 4.73047 46.3633C4.81641 46.5117 4.95312 46.6484 5.14062 46.7734C5.32812 46.8984 5.57031 47.0156 5.86719 47.125C6.17188 47.2266 6.54688 47.3203 6.99219 47.4062C7.90625 47.5938 8.72266 47.8398 9.44141 48.1445C10.1602 48.4414 10.7305 48.8477 11.1523 49.3633C11.5742 49.8711 11.7852 50.5391 11.7852 51.3672C11.7852 51.9297 11.6602 52.4453 11.4102 52.9141C11.1602 53.3828 10.8008 53.793 10.332 54.1445C9.86328 54.4883 9.30078 54.7578 8.64453 54.9531C7.99609 55.1406 7.26562 55.2344 6.45312 55.2344C5.27344 55.2344 4.27344 55.0234 3.45312 54.6016C2.64062 54.1797 2.02344 53.6445 1.60156 52.9961C1.1875 52.3398 0.980469 51.668 0.980469 50.9805H4.17969C4.19531 51.4414 4.3125 51.8125 4.53125 52.0938C4.75781 52.375 5.04297 52.5781 5.38672 52.7031C5.73828 52.8281 6.11719 52.8906 6.52344 52.8906C6.96094 52.8906 7.32422 52.832 7.61328 52.7148C7.90234 52.5898 8.12109 52.4258 8.26953 52.2227C8.42578 52.0117 8.50391 51.7695 8.50391 51.4961Z" fill="white"/>
</svg>
