<svg width="112" height="18" viewBox="0 0 112 18" fill="none" xmlns="http://www.w3.org/2000/svg">
<path d="M32.0625 9.79785V13.7422C31.9076 13.929 31.6683 14.1318 31.3447 14.3506C31.0212 14.5648 30.6042 14.7493 30.0938 14.9043C29.5833 15.0592 28.9658 15.1367 28.2412 15.1367C27.5986 15.1367 27.013 15.0319 26.4844 14.8223C25.9557 14.6081 25.5 14.2959 25.1172 13.8857C24.7389 13.4756 24.4473 12.9743 24.2422 12.3818C24.0371 11.7848 23.9346 11.1035 23.9346 10.3379V9.71582C23.9346 8.9502 24.0326 8.26888 24.2285 7.67188C24.429 7.07487 24.7139 6.57129 25.083 6.16113C25.4521 5.75098 25.8919 5.4388 26.4023 5.22461C26.9128 5.01042 27.4801 4.90332 28.1045 4.90332C28.9704 4.90332 29.6813 5.0446 30.2373 5.32715C30.7933 5.60514 31.2171 5.99251 31.5088 6.48926C31.805 6.98145 31.9873 7.54655 32.0557 8.18457H30.0664C30.0163 7.84733 29.9206 7.55339 29.7793 7.30273C29.638 7.05208 29.4352 6.85612 29.1709 6.71484C28.9111 6.57357 28.5739 6.50293 28.1592 6.50293C27.8174 6.50293 27.512 6.57357 27.2432 6.71484C26.9788 6.85156 26.7555 7.05436 26.5732 7.32324C26.391 7.59212 26.252 7.9248 26.1562 8.32129C26.0605 8.71777 26.0127 9.17806 26.0127 9.70215V10.3379C26.0127 10.8574 26.0628 11.3177 26.1631 11.7188C26.2633 12.1152 26.4115 12.4502 26.6074 12.7236C26.8079 12.9925 27.054 13.1953 27.3457 13.332C27.6374 13.4688 27.9769 13.5371 28.3643 13.5371C28.6878 13.5371 28.9567 13.5098 29.1709 13.4551C29.3896 13.4004 29.5651 13.3343 29.6973 13.2568C29.834 13.1748 29.9388 13.0973 30.0117 13.0244V11.2607H28.1387V9.79785H32.0625ZM36.998 15.1367C36.4238 15.1367 35.9089 15.0456 35.4531 14.8633C34.9974 14.6764 34.61 14.4189 34.291 14.0908C33.9766 13.7627 33.735 13.3822 33.5664 12.9492C33.3978 12.5117 33.3135 12.0469 33.3135 11.5547V11.2812C33.3135 10.7207 33.3932 10.208 33.5527 9.74316C33.7122 9.27832 33.9401 8.875 34.2363 8.5332C34.5371 8.19141 34.9017 7.92936 35.3301 7.74707C35.7585 7.56022 36.2415 7.4668 36.7793 7.4668C37.3034 7.4668 37.7682 7.55339 38.1738 7.72656C38.5794 7.89974 38.9189 8.14583 39.1924 8.46484C39.4704 8.78385 39.68 9.16667 39.8213 9.61328C39.9626 10.0553 40.0332 10.5475 40.0332 11.0898V11.9102H34.1543V10.5977H38.0986V10.4473C38.0986 10.1738 38.0485 9.93001 37.9482 9.71582C37.8525 9.49707 37.7067 9.32389 37.5107 9.19629C37.3148 9.06868 37.0641 9.00488 36.7588 9.00488C36.499 9.00488 36.2757 9.06185 36.0889 9.17578C35.902 9.28971 35.7493 9.44922 35.6309 9.6543C35.5169 9.85938 35.4303 10.1009 35.3711 10.3789C35.3164 10.6523 35.2891 10.9531 35.2891 11.2812V11.5547C35.2891 11.8509 35.3301 12.1243 35.4121 12.375C35.4987 12.6257 35.6195 12.8421 35.7744 13.0244C35.9339 13.2067 36.1253 13.348 36.3486 13.4482C36.5765 13.5485 36.834 13.5986 37.1211 13.5986C37.4766 13.5986 37.807 13.5303 38.1123 13.3936C38.4222 13.2523 38.6888 13.0404 38.9121 12.7578L39.8691 13.7969C39.7142 14.0202 39.5023 14.2344 39.2334 14.4395C38.9691 14.6445 38.6501 14.8132 38.2764 14.9453C37.9027 15.0729 37.4766 15.1367 36.998 15.1367ZM40.8398 11.377V11.2334C40.8398 10.6911 40.9173 10.1921 41.0723 9.73633C41.2272 9.27604 41.4528 8.87728 41.749 8.54004C42.0452 8.2028 42.4098 7.94076 42.8428 7.75391C43.2757 7.5625 43.7725 7.4668 44.333 7.4668C44.8936 7.4668 45.3926 7.5625 45.8301 7.75391C46.2676 7.94076 46.6344 8.2028 46.9307 8.54004C47.2314 8.87728 47.4593 9.27604 47.6143 9.73633C47.7692 10.1921 47.8467 10.6911 47.8467 11.2334V11.377C47.8467 11.9147 47.7692 12.4137 47.6143 12.874C47.4593 13.3298 47.2314 13.7285 46.9307 14.0703C46.6344 14.4076 46.2699 14.6696 45.8369 14.8564C45.404 15.0433 44.9072 15.1367 44.3467 15.1367C43.7861 15.1367 43.2871 15.0433 42.8496 14.8564C42.4167 14.6696 42.0498 14.4076 41.749 14.0703C41.4528 13.7285 41.2272 13.3298 41.0723 12.874C40.9173 12.4137 40.8398 11.9147 40.8398 11.377ZM42.8086 11.2334V11.377C42.8086 11.6868 42.8359 11.9762 42.8906 12.2451C42.9453 12.514 43.0319 12.751 43.1504 12.9561C43.2734 13.1566 43.4329 13.3138 43.6289 13.4277C43.8249 13.5417 44.0641 13.5986 44.3467 13.5986C44.6201 13.5986 44.8548 13.5417 45.0508 13.4277C45.2467 13.3138 45.404 13.1566 45.5225 12.9561C45.641 12.751 45.7275 12.514 45.7822 12.2451C45.8415 11.9762 45.8711 11.6868 45.8711 11.377V11.2334C45.8711 10.9326 45.8415 10.6501 45.7822 10.3857C45.7275 10.1169 45.6387 9.87988 45.5156 9.6748C45.3971 9.46517 45.2399 9.30111 45.0439 9.18262C44.848 9.06413 44.611 9.00488 44.333 9.00488C44.055 9.00488 43.818 9.06413 43.6221 9.18262C43.4307 9.30111 43.2734 9.46517 43.1504 9.6748C43.0319 9.87988 42.9453 10.1169 42.8906 10.3857C42.8359 10.6501 42.8086 10.9326 42.8086 11.2334ZM51.0254 9.13477V15H49.0498V7.60352H50.9023L51.0254 9.13477ZM50.752 11.042H50.2051C50.2051 10.527 50.2666 10.0531 50.3896 9.62012C50.5173 9.18262 50.7018 8.80436 50.9434 8.48535C51.1895 8.16178 51.4925 7.91113 51.8525 7.7334C52.2126 7.55566 52.6296 7.4668 53.1035 7.4668C53.4316 7.4668 53.7324 7.51693 54.0059 7.61719C54.2793 7.71289 54.514 7.86556 54.71 8.0752C54.9105 8.28027 55.0654 8.54915 55.1748 8.88184C55.2842 9.20996 55.3389 9.60417 55.3389 10.0645V15H53.3701V10.2832C53.3701 9.94596 53.3245 9.6862 53.2334 9.50391C53.1423 9.32161 53.0124 9.19401 52.8438 9.12109C52.6797 9.04818 52.4814 9.01172 52.249 9.01172C51.9938 9.01172 51.7705 9.06413 51.5791 9.16895C51.3923 9.27376 51.2373 9.4196 51.1143 9.60645C50.9912 9.78874 50.9001 10.0029 50.8408 10.249C50.7816 10.4951 50.752 10.7594 50.752 11.042ZM55.1543 10.8164L54.4502 10.9053C54.4502 10.4222 54.5094 9.97331 54.6279 9.55859C54.751 9.14388 54.931 8.7793 55.168 8.46484C55.4095 8.15039 55.708 7.90658 56.0635 7.7334C56.4189 7.55566 56.8291 7.4668 57.2939 7.4668C57.6494 7.4668 57.973 7.51921 58.2646 7.62402C58.5563 7.72428 58.8047 7.88607 59.0098 8.10938C59.2194 8.32812 59.3789 8.61523 59.4883 8.9707C59.6022 9.32617 59.6592 9.76139 59.6592 10.2764V15H57.6836V10.2764C57.6836 9.93457 57.638 9.6748 57.5469 9.49707C57.4603 9.31478 57.3327 9.18945 57.1641 9.12109C57 9.04818 56.804 9.01172 56.5762 9.01172C56.3392 9.01172 56.1318 9.05957 55.9541 9.15527C55.7764 9.24642 55.6283 9.37402 55.5098 9.53809C55.3913 9.70215 55.3024 9.89355 55.2432 10.1123C55.1839 10.3265 55.1543 10.5612 55.1543 10.8164ZM64.5879 15.1367C64.0137 15.1367 63.4987 15.0456 63.043 14.8633C62.5872 14.6764 62.1999 14.4189 61.8809 14.0908C61.5664 13.7627 61.3249 13.3822 61.1562 12.9492C60.9876 12.5117 60.9033 12.0469 60.9033 11.5547V11.2812C60.9033 10.7207 60.9831 10.208 61.1426 9.74316C61.3021 9.27832 61.5299 8.875 61.8262 8.5332C62.127 8.19141 62.4915 7.92936 62.9199 7.74707C63.3483 7.56022 63.8314 7.4668 64.3691 7.4668C64.8932 7.4668 65.3581 7.55339 65.7637 7.72656C66.1693 7.89974 66.5088 8.14583 66.7822 8.46484C67.0602 8.78385 67.2699 9.16667 67.4111 9.61328C67.5524 10.0553 67.623 10.5475 67.623 11.0898V11.9102H61.7441V10.5977H65.6885V10.4473C65.6885 10.1738 65.6383 9.93001 65.5381 9.71582C65.4424 9.49707 65.2965 9.32389 65.1006 9.19629C64.9046 9.06868 64.654 9.00488 64.3486 9.00488C64.0889 9.00488 63.8656 9.06185 63.6787 9.17578C63.4919 9.28971 63.3392 9.44922 63.2207 9.6543C63.1068 9.85938 63.0202 10.1009 62.9609 10.3789C62.9062 10.6523 62.8789 10.9531 62.8789 11.2812V11.5547C62.8789 11.8509 62.9199 12.1243 63.002 12.375C63.0885 12.6257 63.2093 12.8421 63.3643 13.0244C63.5238 13.2067 63.7152 13.348 63.9385 13.4482C64.1663 13.5485 64.4238 13.5986 64.7109 13.5986C65.0664 13.5986 65.3968 13.5303 65.7021 13.3936C66.012 13.2523 66.2786 13.0404 66.502 12.7578L67.459 13.7969C67.304 14.0202 67.0921 14.2344 66.8232 14.4395C66.5589 14.6445 66.2399 14.8132 65.8662 14.9453C65.4925 15.0729 65.0664 15.1367 64.5879 15.1367ZM72.3672 7.60352V8.99805H68.0605V7.60352H72.3672ZM69.127 5.77832H71.0957V12.7715C71.0957 12.9857 71.123 13.1497 71.1777 13.2637C71.237 13.3776 71.3236 13.4574 71.4375 13.5029C71.5514 13.5439 71.695 13.5645 71.8682 13.5645C71.9912 13.5645 72.1006 13.5599 72.1963 13.5508C72.2965 13.5371 72.3809 13.5234 72.4492 13.5098L72.4561 14.959C72.2874 15.0137 72.1051 15.057 71.9092 15.0889C71.7132 15.1208 71.4967 15.1367 71.2598 15.1367C70.8268 15.1367 70.4486 15.0661 70.125 14.9248C69.806 14.779 69.5599 14.5465 69.3867 14.2275C69.2135 13.9085 69.127 13.4893 69.127 12.9697V5.77832ZM75.457 9.2168V15H73.4883V7.60352H75.3408L75.457 9.2168ZM77.6855 7.55566L77.6514 9.38086C77.5557 9.36719 77.4395 9.35579 77.3027 9.34668C77.1706 9.33301 77.0498 9.32617 76.9404 9.32617C76.6624 9.32617 76.4209 9.36263 76.2158 9.43555C76.0153 9.50391 75.8467 9.60645 75.71 9.74316C75.5778 9.87988 75.4775 10.0462 75.4092 10.2422C75.3454 10.4382 75.3089 10.6615 75.2998 10.9121L74.9033 10.7891C74.9033 10.3105 74.9512 9.87077 75.0469 9.46973C75.1426 9.06413 75.2816 8.71094 75.4639 8.41016C75.6507 8.10938 75.8786 7.87695 76.1475 7.71289C76.4163 7.54883 76.724 7.4668 77.0703 7.4668C77.1797 7.4668 77.2913 7.47591 77.4053 7.49414C77.5192 7.50781 77.6126 7.52832 77.6855 7.55566ZM80.6934 7.60352V15H78.7178V7.60352H80.6934ZM78.5947 5.67578C78.5947 5.38867 78.695 5.15169 78.8955 4.96484C79.096 4.77799 79.3649 4.68457 79.7021 4.68457C80.0348 4.68457 80.3014 4.77799 80.502 4.96484C80.707 5.15169 80.8096 5.38867 80.8096 5.67578C80.8096 5.96289 80.707 6.19987 80.502 6.38672C80.3014 6.57357 80.0348 6.66699 79.7021 6.66699C79.3649 6.66699 79.096 6.57357 78.8955 6.38672C78.695 6.19987 78.5947 5.96289 78.5947 5.67578ZM85.376 13.5986C85.6175 13.5986 85.8317 13.5531 86.0186 13.4619C86.2054 13.3662 86.3512 13.234 86.4561 13.0654C86.5654 12.8923 86.6224 12.6895 86.627 12.457H88.4795C88.4749 12.9766 88.3359 13.4391 88.0625 13.8447C87.7891 14.2458 87.4222 14.5625 86.9619 14.7949C86.5016 15.0228 85.9867 15.1367 85.417 15.1367C84.8428 15.1367 84.3415 15.041 83.9131 14.8496C83.4893 14.6582 83.1361 14.3939 82.8535 14.0566C82.571 13.7148 82.359 13.3184 82.2178 12.8672C82.0765 12.4115 82.0059 11.9238 82.0059 11.4043V11.2061C82.0059 10.682 82.0765 10.1943 82.2178 9.74316C82.359 9.28743 82.571 8.89095 82.8535 8.55371C83.1361 8.21191 83.4893 7.94531 83.9131 7.75391C84.3369 7.5625 84.8337 7.4668 85.4033 7.4668C86.0094 7.4668 86.5404 7.58301 86.9961 7.81543C87.4564 8.04785 87.8164 8.38053 88.0762 8.81348C88.3405 9.24186 88.4749 9.75 88.4795 10.3379H86.627C86.6224 10.0918 86.57 9.86849 86.4697 9.66797C86.374 9.46745 86.2327 9.30794 86.0459 9.18945C85.8636 9.06641 85.638 9.00488 85.3691 9.00488C85.082 9.00488 84.8473 9.06641 84.665 9.18945C84.4827 9.30794 84.3415 9.47201 84.2412 9.68164C84.141 9.88672 84.0703 10.1214 84.0293 10.3857C83.9928 10.6455 83.9746 10.9189 83.9746 11.2061V11.4043C83.9746 11.6914 83.9928 11.9671 84.0293 12.2314C84.0658 12.4958 84.1341 12.7305 84.2344 12.9355C84.3392 13.1406 84.4827 13.3024 84.665 13.4209C84.8473 13.5394 85.0843 13.5986 85.376 13.5986ZM93.6201 12.9561C93.6201 12.8148 93.5791 12.6872 93.4971 12.5732C93.415 12.4593 93.2624 12.3545 93.0391 12.2588C92.8203 12.1585 92.5036 12.0674 92.0889 11.9854C91.7152 11.9033 91.3665 11.8008 91.043 11.6777C90.724 11.5501 90.446 11.3975 90.209 11.2197C89.9766 11.042 89.7943 10.8324 89.6621 10.5908C89.5299 10.3447 89.4639 10.0645 89.4639 9.75C89.4639 9.4401 89.5299 9.14844 89.6621 8.875C89.7988 8.60156 89.9925 8.36003 90.2432 8.15039C90.4984 7.9362 90.8083 7.76986 91.1729 7.65137C91.542 7.52832 91.9567 7.4668 92.417 7.4668C93.0596 7.4668 93.611 7.56934 94.0713 7.77441C94.5361 7.97949 94.8916 8.26204 95.1377 8.62207C95.3883 8.97754 95.5137 9.38314 95.5137 9.83887H93.5449C93.5449 9.64746 93.5039 9.47656 93.4219 9.32617C93.3444 9.17122 93.2214 9.05046 93.0527 8.96387C92.8887 8.87272 92.6745 8.82715 92.4102 8.82715C92.1914 8.82715 92.0023 8.86589 91.8428 8.94336C91.6833 9.01628 91.5602 9.11654 91.4736 9.24414C91.3916 9.36719 91.3506 9.50391 91.3506 9.6543C91.3506 9.76823 91.3734 9.87077 91.4189 9.96191C91.4691 10.0485 91.5488 10.1283 91.6582 10.2012C91.7676 10.2741 91.9089 10.3424 92.082 10.4062C92.2598 10.4655 92.4785 10.5202 92.7383 10.5703C93.2715 10.6797 93.7477 10.8232 94.167 11.001C94.5863 11.1742 94.9189 11.4111 95.165 11.7119C95.4111 12.0081 95.5342 12.3978 95.5342 12.8809C95.5342 13.209 95.4613 13.5098 95.3154 13.7832C95.1696 14.0566 94.96 14.2959 94.6865 14.501C94.4131 14.7015 94.085 14.8587 93.7021 14.9727C93.3239 15.082 92.8978 15.1367 92.4238 15.1367C91.7357 15.1367 91.1523 15.0137 90.6738 14.7676C90.1999 14.5215 89.8398 14.2093 89.5938 13.8311C89.3522 13.4482 89.2314 13.0563 89.2314 12.6553H91.0977C91.1068 12.9242 91.1751 13.1406 91.3027 13.3047C91.4349 13.4688 91.6012 13.5872 91.8018 13.6602C92.0068 13.7331 92.2279 13.7695 92.4648 13.7695C92.7201 13.7695 92.932 13.7354 93.1006 13.667C93.2692 13.5941 93.3968 13.4984 93.4834 13.3799C93.5745 13.2568 93.6201 13.1156 93.6201 12.9561ZM96.9082 14.0498C96.9082 13.7581 97.0085 13.5143 97.209 13.3184C97.4141 13.1224 97.6852 13.0244 98.0225 13.0244C98.3597 13.0244 98.6286 13.1224 98.8291 13.3184C99.0342 13.5143 99.1367 13.7581 99.1367 14.0498C99.1367 14.3415 99.0342 14.5853 98.8291 14.7812C98.6286 14.9772 98.3597 15.0752 98.0225 15.0752C97.6852 15.0752 97.4141 14.9772 97.209 14.7812C97.0085 14.5853 96.9082 14.3415 96.9082 14.0498ZM102.951 7.60352V15H100.976V7.60352H102.951ZM100.853 5.67578C100.853 5.38867 100.953 5.15169 101.153 4.96484C101.354 4.77799 101.623 4.68457 101.96 4.68457C102.293 4.68457 102.559 4.77799 102.76 4.96484C102.965 5.15169 103.067 5.38867 103.067 5.67578C103.067 5.96289 102.965 6.19987 102.76 6.38672C102.559 6.57357 102.293 6.66699 101.96 6.66699C101.623 6.66699 101.354 6.57357 101.153 6.38672C100.953 6.19987 100.853 5.96289 100.853 5.67578ZM104.264 11.377V11.2334C104.264 10.6911 104.341 10.1921 104.496 9.73633C104.651 9.27604 104.877 8.87728 105.173 8.54004C105.469 8.2028 105.834 7.94076 106.267 7.75391C106.7 7.5625 107.196 7.4668 107.757 7.4668C108.317 7.4668 108.816 7.5625 109.254 7.75391C109.691 7.94076 110.058 8.2028 110.354 8.54004C110.655 8.87728 110.883 9.27604 111.038 9.73633C111.193 10.1921 111.271 10.6911 111.271 11.2334V11.377C111.271 11.9147 111.193 12.4137 111.038 12.874C110.883 13.3298 110.655 13.7285 110.354 14.0703C110.058 14.4076 109.694 14.6696 109.261 14.8564C108.828 15.0433 108.331 15.1367 107.771 15.1367C107.21 15.1367 106.711 15.0433 106.273 14.8564C105.84 14.6696 105.474 14.4076 105.173 14.0703C104.877 13.7285 104.651 13.3298 104.496 12.874C104.341 12.4137 104.264 11.9147 104.264 11.377ZM106.232 11.2334V11.377C106.232 11.6868 106.26 11.9762 106.314 12.2451C106.369 12.514 106.456 12.751 106.574 12.9561C106.697 13.1566 106.857 13.3138 107.053 13.4277C107.249 13.5417 107.488 13.5986 107.771 13.5986C108.044 13.5986 108.279 13.5417 108.475 13.4277C108.671 13.3138 108.828 13.1566 108.946 12.9561C109.065 12.751 109.151 12.514 109.206 12.2451C109.265 11.9762 109.295 11.6868 109.295 11.377V11.2334C109.295 10.9326 109.265 10.6501 109.206 10.3857C109.151 10.1169 109.062 9.87988 108.939 9.6748C108.821 9.46517 108.664 9.30111 108.468 9.18262C108.272 9.06413 108.035 9.00488 107.757 9.00488C107.479 9.00488 107.242 9.06413 107.046 9.18262C106.854 9.30111 106.697 9.46517 106.574 9.6748C106.456 9.87988 106.369 10.1169 106.314 10.3857C106.26 10.6501 106.232 10.9326 106.232 11.2334Z" fill="white"/>
<path d="M18 6.0205C18.0001 4.80775 17.6351 3.62324 16.9529 2.62214C16.2706 1.62104 15.3029 0.850025 14.1766 0.410086C13.0502 -0.0298586 11.8177 -0.118212 10.6405 0.156591C9.46317 0.431395 8.39611 1.05655 7.57894 1.95016H0V18H16.002V10.4991C16.6301 9.93547 17.1327 9.24528 17.4769 8.47356C17.8212 7.70184 17.9995 6.86602 18 6.0205ZM14.9211 6.0205C14.9223 6.60163 14.7516 7.17007 14.4307 7.65388C14.1098 8.13763 13.6531 8.51506 13.1183 8.73825C12.5835 8.96151 11.9948 9.02056 11.4266 8.90789C10.8584 8.79529 10.3363 8.51603 9.92629 8.10552C9.51631 7.69501 9.23696 7.17172 9.12352 6.60181C9.01007 6.03196 9.06771 5.44109 9.28906 4.90408C9.51042 4.36705 9.8856 3.908 10.3671 3.58501C10.8486 3.26202 11.4148 3.08962 11.9939 3.08961C12.7692 3.08961 13.5128 3.39821 14.0616 3.94768C14.6104 4.49715 14.9195 5.24263 14.9211 6.0205ZM12.9231 14.9107H3.07895V5.03948H6.07894C6.021 5.36334 5.99052 5.69153 5.98785 6.0205C5.98949 7.6183 6.62277 9.15016 7.7488 10.28C8.87477 11.4098 10.4015 12.0452 11.9939 12.0468C12.3053 12.0452 12.616 12.0187 12.9231 11.9676V14.9107Z" fill="#00EFFE"/>
</svg>
