<svg width="188" height="134" viewBox="0 0 188 134" fill="none" xmlns="http://www.w3.org/2000/svg">
<path d="M138.341 24H49.6591C49.2954 24 48.9604 24.1974 48.7843 24.5156L2.82203 107.516C2.45294 108.182 2.93498 109 3.69685 109H184.303C185.065 109 185.547 108.182 185.178 107.516L139.216 24.5156C139.04 24.1974 138.705 24 138.341 24Z" stroke="#00EFFE" stroke-width="5"/>
<line x1="51" y1="24" x2="51" y2="109" stroke="#00EFFE" stroke-width="2" stroke-dasharray="2 2"/>
<path d="M93.0625 115H96.4375V130.094L96.0977 133H93.0625V115ZM104.465 126.531V126.777C104.465 127.723 104.363 128.59 104.16 129.379C103.965 130.168 103.66 130.852 103.246 131.43C102.832 132 102.316 132.445 101.699 132.766C101.09 133.078 100.371 133.234 99.543 133.234C98.7695 133.234 98.0977 133.078 97.5273 132.766C96.9648 132.453 96.4922 132.012 96.1094 131.441C95.7266 130.871 95.418 130.203 95.1836 129.438C94.9492 128.672 94.7734 127.836 94.6562 126.93V126.391C94.7734 125.484 94.9492 124.648 95.1836 123.883C95.418 123.117 95.7266 122.449 96.1094 121.879C96.4922 121.309 96.9648 120.867 97.5273 120.555C98.0898 120.242 98.7539 120.086 99.5195 120.086C100.355 120.086 101.082 120.246 101.699 120.566C102.324 120.879 102.84 121.324 103.246 121.902C103.66 122.473 103.965 123.152 104.16 123.941C104.363 124.723 104.465 125.586 104.465 126.531ZM101.09 126.777V126.531C101.09 126.016 101.051 125.531 100.973 125.078C100.902 124.617 100.777 124.215 100.598 123.871C100.418 123.52 100.172 123.242 99.8594 123.039C99.5547 122.836 99.1602 122.734 98.6758 122.734C98.2148 122.734 97.8242 122.812 97.5039 122.969C97.1836 123.125 96.918 123.344 96.707 123.625C96.5039 123.906 96.3516 124.242 96.25 124.633C96.1484 125.016 96.0859 125.438 96.0625 125.898V127.434C96.0859 128.051 96.1875 128.598 96.3672 129.074C96.5547 129.543 96.8359 129.914 97.2109 130.188C97.5938 130.453 98.0898 130.586 98.6992 130.586C99.1758 130.586 99.5703 130.492 99.8828 130.305C100.195 130.117 100.438 129.852 100.609 129.508C100.789 129.164 100.914 128.762 100.984 128.301C101.055 127.832 101.09 127.324 101.09 126.777Z" fill="white"/>
<path d="M96.2344 12.1406V6.49219C96.2344 6.08594 96.168 5.73828 96.0352 5.44922C95.9023 5.15234 95.6953 4.92188 95.4141 4.75781C95.1406 4.59375 94.7852 4.51172 94.3477 4.51172C93.9727 4.51172 93.6484 4.57812 93.375 4.71094C93.1016 4.83594 92.8906 5.01953 92.7422 5.26172C92.5938 5.49609 92.5195 5.77344 92.5195 6.09375H89.1445C89.1445 5.55469 89.2695 5.04297 89.5195 4.55859C89.7695 4.07422 90.1328 3.64844 90.6094 3.28125C91.0859 2.90625 91.6523 2.61328 92.3086 2.40234C92.9727 2.19141 93.7148 2.08594 94.5352 2.08594C95.5195 2.08594 96.3945 2.25 97.1602 2.57812C97.9258 2.90625 98.5273 3.39844 98.9648 4.05469C99.4102 4.71094 99.6328 5.53125 99.6328 6.51562V11.9414C99.6328 12.6367 99.6758 13.207 99.7617 13.6523C99.8477 14.0898 99.9727 14.4727 100.137 14.8008V15H96.7266C96.5625 14.6562 96.4375 14.2266 96.3516 13.7109C96.2734 13.1875 96.2344 12.6641 96.2344 12.1406ZM96.6797 7.27734L96.7031 9.1875H94.8164C94.3711 9.1875 93.9844 9.23828 93.6562 9.33984C93.3281 9.44141 93.0586 9.58594 92.8477 9.77344C92.6367 9.95312 92.4805 10.1641 92.3789 10.4062C92.2852 10.6484 92.2383 10.9141 92.2383 11.2031C92.2383 11.4922 92.3047 11.7539 92.4375 11.9883C92.5703 12.2148 92.7617 12.3945 93.0117 12.5273C93.2617 12.6523 93.5547 12.7148 93.8906 12.7148C94.3984 12.7148 94.8398 12.6133 95.2148 12.4102C95.5898 12.207 95.8789 11.957 96.082 11.6602C96.293 11.3633 96.4023 11.082 96.4102 10.8164L97.3008 12.2461C97.1758 12.5664 97.0039 12.8984 96.7852 13.2422C96.5742 13.5859 96.3047 13.9102 95.9766 14.2148C95.6484 14.5117 95.2539 14.7578 94.793 14.9531C94.332 15.1406 93.7852 15.2344 93.1523 15.2344C92.3477 15.2344 91.6172 15.0742 90.9609 14.7539C90.3125 14.4258 89.7969 13.9766 89.4141 13.4062C89.0391 12.8281 88.8516 12.1719 88.8516 11.4375C88.8516 10.7734 88.9766 10.1836 89.2266 9.66797C89.4766 9.15234 89.8438 8.71875 90.3281 8.36719C90.8203 8.00781 91.4336 7.73828 92.168 7.55859C92.9023 7.37109 93.7539 7.27734 94.7227 7.27734H96.6797Z" fill="white"/>
<path d="M69.3789 56V74H66.0039V56H69.3789ZM68.8984 67.2148H67.9727C67.9805 66.332 68.0977 65.5195 68.3242 64.7773C68.5508 64.0273 68.875 63.3789 69.2969 62.832C69.7188 62.2773 70.2227 61.8477 70.8086 61.543C71.4023 61.2383 72.0586 61.0859 72.7773 61.0859C73.4023 61.0859 73.9688 61.1758 74.4766 61.3555C74.9922 61.5273 75.4336 61.8086 75.8008 62.1992C76.1758 62.582 76.4648 63.0859 76.668 63.7109C76.8711 64.3359 76.9727 65.0938 76.9727 65.9844V74H73.5742V65.9609C73.5742 65.3984 73.4922 64.957 73.3281 64.6367C73.1719 64.3086 72.9414 64.0781 72.6367 63.9453C72.3398 63.8047 71.9727 63.7344 71.5352 63.7344C71.0508 63.7344 70.6367 63.8242 70.293 64.0039C69.957 64.1836 69.6875 64.4336 69.4844 64.7539C69.2812 65.0664 69.1328 65.4336 69.0391 65.8555C68.9453 66.2773 68.8984 66.7305 68.8984 67.2148Z" fill="white"/>
</svg>
