<svg width="192" height="134" viewBox="0 0 192 134" fill="none" xmlns="http://www.w3.org/2000/svg">
<path d="M142.341 24H53.6591C53.2954 24 52.9604 24.1974 52.7843 24.5156L6.82203 107.516C6.45294 108.182 6.93498 109 7.69685 109H188.303C189.065 109 189.547 108.182 189.178 107.516L143.216 24.5156C143.04 24.1974 142.705 24 142.341 24Z" stroke="#00EFFE" stroke-width="5"/>
<line x1="55" y1="24" x2="55" y2="109" stroke="#00EFFE" stroke-width="2" stroke-dasharray="2 2"/>
<path d="M97.0625 115H100.438V130.094L100.098 133H97.0625V115ZM108.465 126.531V126.777C108.465 127.723 108.363 128.59 108.16 129.379C107.965 130.168 107.66 130.852 107.246 131.43C106.832 132 106.316 132.445 105.699 132.766C105.09 133.078 104.371 133.234 103.543 133.234C102.77 133.234 102.098 133.078 101.527 132.766C100.965 132.453 100.492 132.012 100.109 131.441C99.7266 130.871 99.418 130.203 99.1836 129.438C98.9492 128.672 98.7734 127.836 98.6562 126.93V126.391C98.7734 125.484 98.9492 124.648 99.1836 123.883C99.418 123.117 99.7266 122.449 100.109 121.879C100.492 121.309 100.965 120.867 101.527 120.555C102.09 120.242 102.754 120.086 103.52 120.086C104.355 120.086 105.082 120.246 105.699 120.566C106.324 120.879 106.84 121.324 107.246 121.902C107.66 122.473 107.965 123.152 108.16 123.941C108.363 124.723 108.465 125.586 108.465 126.531ZM105.09 126.777V126.531C105.09 126.016 105.051 125.531 104.973 125.078C104.902 124.617 104.777 124.215 104.598 123.871C104.418 123.52 104.172 123.242 103.859 123.039C103.555 122.836 103.16 122.734 102.676 122.734C102.215 122.734 101.824 122.812 101.504 122.969C101.184 123.125 100.918 123.344 100.707 123.625C100.504 123.906 100.352 124.242 100.25 124.633C100.148 125.016 100.086 125.438 100.062 125.898V127.434C100.086 128.051 100.188 128.598 100.367 129.074C100.555 129.543 100.836 129.914 101.211 130.188C101.594 130.453 102.09 130.586 102.699 130.586C103.176 130.586 103.57 130.492 103.883 130.305C104.195 130.117 104.438 129.852 104.609 129.508C104.789 129.164 104.914 128.762 104.984 128.301C105.055 127.832 105.09 127.324 105.09 126.777Z" fill="white"/>
<path d="M100.234 12.1406V6.49219C100.234 6.08594 100.168 5.73828 100.035 5.44922C99.9023 5.15234 99.6953 4.92188 99.4141 4.75781C99.1406 4.59375 98.7852 4.51172 98.3477 4.51172C97.9727 4.51172 97.6484 4.57812 97.375 4.71094C97.1016 4.83594 96.8906 5.01953 96.7422 5.26172C96.5938 5.49609 96.5195 5.77344 96.5195 6.09375H93.1445C93.1445 5.55469 93.2695 5.04297 93.5195 4.55859C93.7695 4.07422 94.1328 3.64844 94.6094 3.28125C95.0859 2.90625 95.6523 2.61328 96.3086 2.40234C96.9727 2.19141 97.7148 2.08594 98.5352 2.08594C99.5195 2.08594 100.395 2.25 101.16 2.57812C101.926 2.90625 102.527 3.39844 102.965 4.05469C103.41 4.71094 103.633 5.53125 103.633 6.51562V11.9414C103.633 12.6367 103.676 13.207 103.762 13.6523C103.848 14.0898 103.973 14.4727 104.137 14.8008V15H100.727C100.562 14.6562 100.438 14.2266 100.352 13.7109C100.273 13.1875 100.234 12.6641 100.234 12.1406ZM100.68 7.27734L100.703 9.1875H98.8164C98.3711 9.1875 97.9844 9.23828 97.6562 9.33984C97.3281 9.44141 97.0586 9.58594 96.8477 9.77344C96.6367 9.95312 96.4805 10.1641 96.3789 10.4062C96.2852 10.6484 96.2383 10.9141 96.2383 11.2031C96.2383 11.4922 96.3047 11.7539 96.4375 11.9883C96.5703 12.2148 96.7617 12.3945 97.0117 12.5273C97.2617 12.6523 97.5547 12.7148 97.8906 12.7148C98.3984 12.7148 98.8398 12.6133 99.2148 12.4102C99.5898 12.207 99.8789 11.957 100.082 11.6602C100.293 11.3633 100.402 11.082 100.41 10.8164L101.301 12.2461C101.176 12.5664 101.004 12.8984 100.785 13.2422C100.574 13.5859 100.305 13.9102 99.9766 14.2148C99.6484 14.5117 99.2539 14.7578 98.793 14.9531C98.332 15.1406 97.7852 15.2344 97.1523 15.2344C96.3477 15.2344 95.6172 15.0742 94.9609 14.7539C94.3125 14.4258 93.7969 13.9766 93.4141 13.4062C93.0391 12.8281 92.8516 12.1719 92.8516 11.4375C92.8516 10.7734 92.9766 10.1836 93.2266 9.66797C93.4766 9.15234 93.8438 8.71875 94.3281 8.36719C94.8203 8.00781 95.4336 7.73828 96.168 7.55859C96.9023 7.37109 97.7539 7.27734 98.7227 7.27734H100.68Z" fill="white"/>
<path d="M73.3789 56V74H70.0039V56H73.3789ZM72.8984 67.2148H71.9727C71.9805 66.332 72.0977 65.5195 72.3242 64.7773C72.5508 64.0273 72.875 63.3789 73.2969 62.832C73.7188 62.2773 74.2227 61.8477 74.8086 61.543C75.4023 61.2383 76.0586 61.0859 76.7773 61.0859C77.4023 61.0859 77.9688 61.1758 78.4766 61.3555C78.9922 61.5273 79.4336 61.8086 79.8008 62.1992C80.1758 62.582 80.4648 63.0859 80.668 63.7109C80.8711 64.3359 80.9727 65.0938 80.9727 65.9844V74H77.5742V65.9609C77.5742 65.3984 77.4922 64.957 77.3281 64.6367C77.1719 64.3086 76.9414 64.0781 76.6367 63.9453C76.3398 63.8047 75.9727 63.7344 75.5352 63.7344C75.0508 63.7344 74.6367 63.8242 74.293 64.0039C73.957 64.1836 73.6875 64.4336 73.4844 64.7539C73.2812 65.0664 73.1328 65.4336 73.0391 65.8555C72.9453 66.2773 72.8984 66.7305 72.8984 67.2148Z" fill="white"/>
<path d="M5.79297 70.5977C6.20703 70.5977 6.57422 70.5195 6.89453 70.3633C7.21484 70.1992 7.46484 69.9727 7.64453 69.6836C7.83203 69.3867 7.92969 69.0391 7.9375 68.6406H11.1133C11.1055 69.5312 10.8672 70.3242 10.3984 71.0195C9.92969 71.707 9.30078 72.25 8.51172 72.6484C7.72266 73.0391 6.83984 73.2344 5.86328 73.2344C4.87891 73.2344 4.01953 73.0703 3.28516 72.7422C2.55859 72.4141 1.95312 71.9609 1.46875 71.3828C0.984375 70.7969 0.621094 70.1172 0.378906 69.3438C0.136719 68.5625 0.015625 67.7266 0.015625 66.8359V66.4961C0.015625 65.5977 0.136719 64.7617 0.378906 63.9883C0.621094 63.207 0.984375 62.5273 1.46875 61.9492C1.95312 61.3633 2.55859 60.9062 3.28516 60.5781C4.01172 60.25 4.86328 60.0859 5.83984 60.0859C6.87891 60.0859 7.78906 60.2852 8.57031 60.6836C9.35938 61.082 9.97656 61.6523 10.4219 62.3945C10.875 63.1289 11.1055 64 11.1133 65.0078H7.9375C7.92969 64.5859 7.83984 64.2031 7.66797 63.8594C7.50391 63.5156 7.26172 63.2422 6.94141 63.0391C6.62891 62.8281 6.24219 62.7227 5.78125 62.7227C5.28906 62.7227 4.88672 62.8281 4.57422 63.0391C4.26172 63.2422 4.01953 63.5234 3.84766 63.8828C3.67578 64.2344 3.55469 64.6367 3.48438 65.0898C3.42188 65.5352 3.39062 66.0039 3.39062 66.4961V66.8359C3.39062 67.3281 3.42188 67.8008 3.48438 68.2539C3.54688 68.707 3.66406 69.1094 3.83594 69.4609C4.01562 69.8125 4.26172 70.0898 4.57422 70.293C4.88672 70.4961 5.29297 70.5977 5.79297 70.5977Z" fill="white"/>
</svg>
