<svg width="148" height="148" viewBox="0 0 148 148" fill="none" xmlns="http://www.w3.org/2000/svg">
<path d="M91.3789 64V82H88.0039V64H91.3789ZM90.8984 75.2148H89.9727C89.9805 74.332 90.0977 73.5195 90.3242 72.7773C90.5508 72.0273 90.875 71.3789 91.2969 70.832C91.7188 70.2773 92.2227 69.8477 92.8086 69.543C93.4023 69.2383 94.0586 69.0859 94.7773 69.0859C95.4023 69.0859 95.9688 69.1758 96.4766 69.3555C96.9922 69.5273 97.4336 69.8086 97.8008 70.1992C98.1758 70.582 98.4648 71.0859 98.668 71.7109C98.8711 72.3359 98.9727 73.0938 98.9727 73.9844V82H95.5742V73.9609C95.5742 73.3984 95.4922 72.957 95.3281 72.6367C95.1719 72.3086 94.9414 72.0781 94.6367 71.9453C94.3398 71.8047 93.9727 71.7344 93.5352 71.7344C93.0508 71.7344 92.6367 71.8242 92.293 72.0039C91.957 72.1836 91.6875 72.4336 91.4844 72.7539C91.2812 73.0664 91.1328 73.4336 91.0391 73.8555C90.9453 74.2773 90.8984 74.7305 90.8984 75.2148Z" fill="white"/>
<path d="M72.0625 119H75.4375V134.094L75.0977 137H72.0625V119ZM83.4648 130.531V130.777C83.4648 131.723 83.3633 132.59 83.1602 133.379C82.9648 134.168 82.6602 134.852 82.2461 135.43C81.832 136 81.3164 136.445 80.6992 136.766C80.0898 137.078 79.3711 137.234 78.543 137.234C77.7695 137.234 77.0977 137.078 76.5273 136.766C75.9648 136.453 75.4922 136.012 75.1094 135.441C74.7266 134.871 74.418 134.203 74.1836 133.438C73.9492 132.672 73.7734 131.836 73.6562 130.93V130.391C73.7734 129.484 73.9492 128.648 74.1836 127.883C74.418 127.117 74.7266 126.449 75.1094 125.879C75.4922 125.309 75.9648 124.867 76.5273 124.555C77.0898 124.242 77.7539 124.086 78.5195 124.086C79.3555 124.086 80.082 124.246 80.6992 124.566C81.3242 124.879 81.8398 125.324 82.2461 125.902C82.6602 126.473 82.9648 127.152 83.1602 127.941C83.3633 128.723 83.4648 129.586 83.4648 130.531ZM80.0898 130.777V130.531C80.0898 130.016 80.0508 129.531 79.9727 129.078C79.9023 128.617 79.7773 128.215 79.5977 127.871C79.418 127.52 79.1719 127.242 78.8594 127.039C78.5547 126.836 78.1602 126.734 77.6758 126.734C77.2148 126.734 76.8242 126.812 76.5039 126.969C76.1836 127.125 75.918 127.344 75.707 127.625C75.5039 127.906 75.3516 128.242 75.25 128.633C75.1484 129.016 75.0859 129.438 75.0625 129.898V131.434C75.0859 132.051 75.1875 132.598 75.3672 133.074C75.5547 133.543 75.8359 133.914 76.2109 134.188C76.5938 134.453 77.0898 134.586 77.6992 134.586C78.1758 134.586 78.5703 134.492 78.8828 134.305C79.1953 134.117 79.4375 133.852 79.6094 133.508C79.7891 133.164 79.9141 132.762 79.9844 132.301C80.0547 131.832 80.0898 131.324 80.0898 130.777Z" fill="white"/>
<path d="M14.2443 108.5L74 4.99999L133.756 108.5H14.2443Z" stroke="#00EFFE" stroke-width="5"/>
<line x1="74.5" y1="6" x2="74.5" y2="107" stroke="#00EFFE" stroke-dasharray="2 2"/>
</svg>
